<?xml version="1.0" standalone="no"?>
<!DOCTYPE svg PUBLIC "-//W3C//DTD SVG 1.1//EN" "http://www.w3.org/Graphics/SVG/1.1/DTD/svg11.dtd" >
<svg xmlns="http://www.w3.org/2000/svg" xmlns:xlink="http://www.w3.org/1999/xlink" version="1.1">
<metadata></metadata>
<defs>
<font id="pt_sansbold" horiz-adv-x="1207" >
<font-face units-per-em="2048" ascent="1638" descent="-410" />
<missing-glyph horiz-adv-x="538" />
<glyph horiz-adv-x="0" />
<glyph unicode="&#xd;" horiz-adv-x="538" />
<glyph unicode=" "  horiz-adv-x="538" />
<glyph unicode="&#x09;" horiz-adv-x="538" />
<glyph unicode="&#xa0;" horiz-adv-x="538" />
<glyph unicode="!" horiz-adv-x="626" d="M183 140q0 75 47 119t124 44q81 0 127.5 -44t46.5 -119q0 -74 -46.5 -119t-127.5 -45q-77 0 -124 45t-47 119zM213 790v701h285v-701l-55 -347h-175z" />
<glyph unicode="&#x22;" horiz-adv-x="855" d="M191 1031v460h244l-77 -460h-167zM506 1031v460h244l-77 -460h-167z" />
<glyph unicode="#" d="M41 437l46 206h161l53 226h-154l46 206h156l75 307h226l-73 -307h189l75 307h226l-73 -307h154l-53 -206h-150l-53 -226h147l-51 -206h-145l-77 -329h-227l77 329h-190l-77 -329h-227l76 329h-157zM475 643h190l53 226h-190z" />
<glyph unicode="$" d="M147 1095q0 183 97 284t262 131v194h222v-186q94 -6 164.5 -25t129.5 -44l-77 -237q-36 16 -91 33.5t-126 26.5v-398q66 -31 133.5 -68t119.5 -88t85 -120.5t33 -164.5q0 -196 -99 -306t-272 -142v-198h-222v185q-121 4 -212 25.5t-143 49.5l83 240q38 -24 107.5 -44.5 t164.5 -29.5v437q-65 30 -130 66t-116 87t-82 122t-31 170zM424 1118q0 -63 50 -106t124 -79v345q-100 -4 -137 -49t-37 -111zM636 213q94 11 140.5 59.5t46.5 127.5q0 69 -55 112.5t-132 79.5v-379z" />
<glyph unicode="%" horiz-adv-x="1788" d="M109 1154q0 96 27.5 164t76.5 113t118 65t150 20t149 -19t118 -61.5t77.5 -112t30.5 -169.5q-3 -99 -30.5 -168.5t-77.5 -112t-118 -62t-149 -19.5t-150 19.5t-118 62t-76.5 112t-27.5 168.5zM215 118l1226 1402l156 -140l-1227 -1410zM355 1154q0 -183 126 -183 q66 0 95 39.5t31 143.5q-2 102 -30.5 142.5t-95.5 40.5q-65 0 -95.5 -40.5t-30.5 -142.5zM974 364q0 96 27.5 164t76.5 113t118 65t150 20t149 -19t118 -61.5t77.5 -112t30.5 -169.5q-3 -99 -30.5 -168.5t-77.5 -112t-118 -62t-149 -19.5t-150 19.5t-118 62t-76.5 112 t-27.5 168.5zM1220 364q0 -183 126 -183q66 0 95 39.5t31 143.5q-2 102 -30.5 142.5t-95.5 40.5q-65 0 -95.5 -40.5t-30.5 -142.5z" />
<glyph unicode="&#x26;" horiz-adv-x="1733" d="M196 413q0 81 27 154.5t74.5 137.5t113.5 119.5t142 97.5q-53 71 -86.5 143.5t-33.5 152.5q0 53 20 107.5t64 98t114 70t170 26.5q98 0 167 -23t111.5 -61.5t62 -87.5t19.5 -100q0 -87 -62 -182t-211 -182q75 -115 149.5 -211t165.5 -189q49 53 88.5 133t69.5 163 l200 -107q-12 -39 -34.5 -84.5t-49 -92.5t-54.5 -88.5t-51 -70.5q68 -61 119 -96.5t104 -65.5l-146 -205q-60 28 -123 73.5t-125 105.5q-77 -71 -192 -125t-283 -54q-110 0 -207 30t-168.5 87.5t-113 139.5t-41.5 186zM473 437q0 -108 79.5 -170t209.5 -62q86 0 160 35 t113 77q-108 114 -197.5 225.5t-156.5 211.5q-102 -79 -155 -152.5t-53 -164.5zM709 1205q0 -89 77 -191q83 53 120 100t37 89q0 51 -28.5 81.5t-91.5 30.5q-58 0 -86 -30.5t-28 -79.5z" />
<glyph unicode="'" horiz-adv-x="540" d="M191 1031v460h244l-77 -460h-167z" />
<glyph unicode="(" horiz-adv-x="695" d="M128 518q0 117 19 246.5t62 260.5t112 257t169 234l179 -114q-75 -100 -125 -209t-80.5 -223t-44.5 -229t-14 -223q0 -102 15 -217.5t46.5 -229.5t83 -222.5t123.5 -197.5l-189 -120q-98 102 -166 224.5t-110 251.5t-61 260t-19 251z" />
<glyph unicode=")" horiz-adv-x="695" d="M24 -349q81 104 132 213.5t80.5 221.5t41.5 224t14 208q-2 115 -18 228.5t-48.5 228t-82 221.5t-115.5 206l179 114q102 -102 170 -224.5t109.5 -251t61 -259.5t21.5 -255q-2 -113 -21.5 -243t-62 -260.5t-111.5 -256.5t-161 -235z" />
<glyph unicode="*" horiz-adv-x="804" d="M85 1156v159h128l126 -37l-109 94l-59 106l136 79l59 -98l32 -126l33 118l59 104l136 -75l-63 -110l-103 -92l138 34h122v-156h-117l-130 35l106 -100l53 -89l-136 -80l-57 98l-43 136l-28 -123l-61 -104l-136 79l61 104l96 79l-117 -35h-126z" />
<glyph unicode="+" horiz-adv-x="1122" d="M92 601v238h345v360h248v-360h348v-238h-348v-365h-248v365h-345z" />
<glyph unicode="," horiz-adv-x="536" d="M79 -201q57 24 100 77t47 114q-49 -7 -93 29t-44 117q0 73 48 115.5t119 42.5q89 0 140 -59.5t51 -157.5q0 -96 -29.5 -165.5t-73 -115.5t-93.5 -72.5t-91 -38.5z" />
<glyph unicode="-" horiz-adv-x="766" d="M115 490v245h535v-245h-535z" />
<glyph unicode="." horiz-adv-x="523" d="M89 140q0 75 47 119t124 44q81 0 128 -44t47 -119q0 -74 -47 -119t-128 -45q-77 0 -124 45t-47 119z" />
<glyph unicode="/" horiz-adv-x="868" d="M-51 -201l760 1717l209 -93l-760 -1721z" />
<glyph unicode="0" d="M85 748q0 392 134.5 582t385.5 190q269 0 394 -188t125 -584q0 -394 -135 -586t-386 -192q-266 0 -392 201.5t-126 576.5zM362 748q0 -260 56.5 -401.5t186.5 -141.5q126 0 184.5 129.5t58.5 413.5q0 258 -55.5 398t-189.5 140q-128 0 -184.5 -132t-56.5 -406z" />
<glyph unicode="1" d="M134 1124l486 392h155v-1282h290v-234h-850v234h297v841l31 146l-102 -126l-189 -130z" />
<glyph unicode="2" d="M147 0v142q51 54 115 125.5t129 151t126.5 165t110.5 171.5t78 167.5t29 152.5q0 88 -50.5 144.5t-158.5 56.5q-68 0 -139.5 -29t-120.5 -74l-110 197q83 68 188 109t248 41q91 0 168 -25t132 -74t87.5 -123t32.5 -172q0 -108 -39.5 -218.5t-100.5 -217.5t-134 -205.5 t-144 -181.5l-112 -88v-10l152 29h410v-234h-897z" />
<glyph unicode="3" d="M166 36l74 230q55 -28 123 -44.5t151 -16.5q132 0 201 70t69 170q0 122 -72.5 179t-227.5 57h-154v148l258 351l121 96l-168 -20h-358v235h813v-151l-299 -403l-94 -57v-11l90 13q75 -6 141.5 -34t117 -80t80 -128.5t29.5 -177.5q0 -126 -41.5 -217.5t-115 -153 t-172 -91.5t-210.5 -30q-94 0 -194 17t-162 49z" />
<glyph unicode="4" d="M41 415v158l675 929h227v-866h235v-221h-235v-415h-258v415h-644zM296 620l137 16h252v327l20 179h-8l-73 -154l-222 -287z" />
<glyph unicode="5" d="M145 30l74 230q49 -21 108 -33t142 -12q140 0 214.5 68.5t74.5 187.5q0 128 -87.5 187.5t-248.5 59.5l-168 -7v780h732v-260h-494v-288l87 9q104 -5 188.5 -38.5t144 -94.5t91.5 -147t32 -193q0 -125 -42.5 -221t-118 -160t-178 -96t-223.5 -32q-95 0 -181.5 16 t-146.5 44z" />
<glyph unicode="6" d="M110 535q0 211 61 381t164.5 297t240.5 205t291 102l62 -219q-106 -17 -196 -65.5t-159.5 -117t-117 -152.5t-66.5 -174q43 54 111 91t170 37q95 0 176.5 -30t139 -88t89.5 -144t32 -196q0 -104 -35.5 -193.5t-99.5 -155.5t-154.5 -104.5t-198.5 -38.5 q-110 0 -203.5 35.5t-161.5 105.5t-106.5 176.5t-38.5 247.5zM374 484q0 -51 15.5 -101.5t44 -89.5t73 -63.5t107.5 -24.5q99 0 162 68t63 174q0 238 -234 238q-85 0 -144 -38t-81 -89q-5 -23 -5.5 -40.5t-0.5 -33.5z" />
<glyph unicode="7" d="M128 1231v260h961v-81l-597 -1410h-270l487 1148l94 104l-128 -21h-547z" />
<glyph unicode="8" d="M130 364q0 75 19 133.5t54 106.5t83.5 86t103.5 70q-104 66 -164 152.5t-60 213.5q0 84 31 156.5t89.5 125.5t142 82.5t187.5 29.5q95 0 174 -25t135.5 -72t87.5 -114t31 -148q0 -126 -56.5 -213.5t-164.5 -159.5q128 -75 192.5 -164t64.5 -230q0 -96 -35 -174t-99 -133 t-153.5 -86t-196.5 -31q-106 0 -192.5 29t-147 80t-93.5 123.5t-33 161.5zM382 411q0 -85 58 -145.5t163 -60.5q96 0 154 46.5t58 140.5q0 49 -23 89.5t-60 73.5t-83 60.5t-93 53.5q-99 -57 -136.5 -124.5t-37.5 -133.5zM431 1122q0 -51 19 -89.5t52 -67t74.5 -53 t85.5 -45.5q128 109 128 239q0 89 -52.5 134.5t-125.5 45.5q-94 0 -137.5 -49t-43.5 -115z" />
<glyph unicode="9" d="M96 1024q0 109 33 201t95.5 157t153.5 101.5t208 36.5q240 0 377.5 -143.5t137.5 -417.5q0 -248 -62.5 -427.5t-168.5 -300.5t-244 -184.5t-291 -76.5l-60 217q117 15 208.5 57.5t157.5 105.5t107.5 143t58.5 172q-51 -56 -109.5 -77t-156.5 -21q-81 0 -160.5 27.5 t-142.5 84t-102.5 142.5t-39.5 203zM364 1039q0 -122 68 -183t171 -61q88 0 143 27.5t85 67.5q6 45 6 86q0 59 -15 116.5t-45.5 102.5t-78.5 71.5t-115 26.5q-104 0 -161.5 -67t-57.5 -187z" />
<glyph unicode=":" horiz-adv-x="572" d="M197 140q0 75 47 119t124 44q81 0 128 -44t47 -119q0 -74 -47 -119t-128 -45q-77 0 -124 45t-47 119zM197 911q0 75 47 119t124 44q81 0 128 -44t47 -119q0 -74 -47 -119t-128 -45q-77 0 -124 45t-47 119z" />
<glyph unicode=";" horiz-adv-x="616" d="M164 -201q57 24 100 77t47 114q-49 -7 -93 29t-44 117q0 73 48 115.5t119 42.5q89 0 140 -59.5t51 -157.5q0 -96 -29.5 -165.5t-73 -115.5t-93.5 -72.5t-91 -38.5zM174 911q0 75 47 119t124 44q81 0 128 -44t47 -119q0 -74 -47 -119t-128 -45q-77 0 -124 45t-47 119z" />
<glyph unicode="&#x3c;" horiz-adv-x="1122" d="M85 607v149l822 492l122 -191l-478 -297l-193 -75l191 -65l490 -292l-121 -192z" />
<glyph unicode="=" horiz-adv-x="1122" d="M92 398v238h941v-238h-941zM92 806v238h941v-238h-941z" />
<glyph unicode="&#x3e;" horiz-adv-x="1122" d="M83 1059l122 189l832 -470v-150l-822 -492l-121 194l477 294l193 77l-191 63z" />
<glyph unicode="?" horiz-adv-x="966" d="M49 1393q81 55 186.5 91t254.5 36q201 0 313.5 -96.5t112.5 -260.5q0 -108 -29 -179.5t-71.5 -122t-93.5 -88.5t-93.5 -81.5t-72.5 -101.5t-30 -147h-236q-10 110 10.5 188t58 135t85.5 98t89.5 79.5t69 80t27.5 98.5q0 75 -41.5 119.5t-147.5 44.5q-34 0 -72.5 -7 t-76.5 -21t-73.5 -32.5t-62.5 -36.5zM248 140q0 75 46.5 119t122.5 44q81 0 128 -44t47 -119q0 -74 -47 -119t-128 -45q-77 0 -123 45t-46 119z" />
<glyph unicode="@" horiz-adv-x="2254" d="M156 502q0 232 82.5 420t223.5 320t326 203t392 71q196 0 364.5 -56t291.5 -161.5t193.5 -258t70.5 -345.5q0 -137 -48 -256.5t-132 -206.5t-196 -138t-240 -51q-53 0 -98.5 11.5t-76.5 39.5t-46 72.5t-9 110.5h-8q-32 -45 -69 -87.5t-82 -75.5t-98.5 -52t-116.5 -19 q-51 0 -98 22t-81 62.5t-54.5 98t-20.5 128.5q0 132 42.5 256.5t116 220.5t170.5 154.5t206 58.5q75 0 125.5 -22.5t93.5 -58.5l67 68h148l-102 -578q-16 -99 -0.5 -144t70.5 -45t108.5 25.5t96.5 79t69.5 134t26.5 192.5q0 160 -53 272.5t-146.5 186t-218.5 107.5t-271 34 q-166 0 -308.5 -60t-247.5 -164t-165 -248t-60 -311t50 -299t145.5 -224.5t237.5 -143t325 -50.5q62 0 141 15t142 45l67 -204q-88 -43 -178.5 -60t-207.5 -17q-207 0 -382.5 59.5t-304 176.5t-201 291t-72.5 401zM886 424q0 -70 28.5 -115t99.5 -45q30 0 64 18.5t65.5 48 t62 68t52.5 80.5l54 294q-28 24 -57.5 37t-74.5 13q-63 0 -117.5 -36.5t-94 -94.5t-61 -129t-21.5 -139z" />
<glyph unicode="A" horiz-adv-x="1288" d="M0 0l537 1502h215l537 -1502h-307l-120 330h-457l-113 -330h-292zM479 565h320l-111 331l-45 234h-11l-44 -236z" />
<glyph unicode="B" horiz-adv-x="1258" d="M128 10v1470q40 6 92 13t112 11t123 6t124 2q104 0 203.5 -16t177 -56t124 -113t46.5 -183q0 -55 -13.5 -110.5t-45.5 -101.5t-83 -81.5t-124 -51.5v-13q64 -10 122 -36t100 -71t67 -109t25 -151q0 -115 -49 -199t-131 -137t-186.5 -78.5t-215.5 -25.5h-92.5t-121.5 3 t-132 9.5t-122 18.5zM409 232q10 -4 34 -6t50.5 -3t55 -2.5t49.5 -1.5q53 0 103.5 13t89 39.5t62 67.5t23.5 96q0 70 -28 110.5t-73 62.5t-100 28.5t-110 6.5h-156v-411zM409 864h93q30 0 70 2.5t64 7.5q82 26 140.5 77t58.5 133q0 55 -21.5 91.5t-56.5 57.5t-80 30t-94 9 q-55 0 -101.5 -2t-72.5 -7v-399z" />
<glyph unicode="C" horiz-adv-x="1189" d="M81 746q0 219 61 366.5t157.5 238t215.5 130t239 39.5q128 0 216.5 -16.5t145.5 -40.5l-57 -247q-49 24 -116 34t-163 10q-177 0 -284.5 -125t-107.5 -389q0 -116 25.5 -210.5t77.5 -161.5t130 -104.5t180 -37.5q95 0 161.5 19t114.5 50l61 -240q-69 -49 -174.5 -70 t-215.5 -21q-134 0 -255 41.5t-212.5 134t-145.5 241t-54 359.5z" />
<glyph unicode="D" horiz-adv-x="1378" d="M128 -2v1493q45 7 101 11t116 6t116.5 3t101.5 1q197 0 337.5 -55t228 -155.5t128 -238.5t40.5 -305q0 -151 -38 -291.5t-128 -249.5t-235.5 -175t-360.5 -66q-35 0 -91 2.5t-117 6t-116 6.5t-83 7zM419 245q8 -2 29 -3.5t44.5 -2.5t44.5 -2t32 -1q124 0 205.5 43.5 t129.5 116.5t67 167.5t19 194.5q0 88 -16.5 176t-63 158.5t-125 115t-199.5 44.5q-47 0 -95 -2t-72 -6v-999z" />
<glyph unicode="E" horiz-adv-x="1111" d="M128 0v1491h884v-260h-593v-347h540v-260h-540v-364h603v-260h-894z" />
<glyph unicode="F" horiz-adv-x="1081" d="M128 0v1491h884v-260h-593v-369h546v-259h-546v-603h-291z" />
<glyph unicode="G" horiz-adv-x="1296" d="M81 746q0 211 61 358.5t159.5 240t222.5 134t251 41.5q128 0 225 -19t154 -40l-59 -245q-53 21 -119.5 32.5t-168.5 11.5q-91 0 -167.5 -27.5t-133.5 -90t-87.5 -160.5t-30.5 -238q0 -135 29.5 -232t82.5 -159.5t125 -92.5t153 -30q55 0 108 14t90 41v282l-322 34v177 h556v-665q-90 -75 -214 -109t-246 -34q-143 0 -265.5 44.5t-212 140t-140.5 242t-51 349.5z" />
<glyph unicode="H" horiz-adv-x="1386" d="M128 0v1491h291v-607h546v607h291v-1491h-291v624h-546v-624h-291z" />
<glyph unicode="I" horiz-adv-x="606" d="M158 0v1491h291v-1491h-291z" />
<glyph unicode="J" horiz-adv-x="711" d="M-49 24l64 238q55 -28 125 -28q90 0 114.5 66t24.5 175v1016h292v-1091q0 -85 -19.5 -161.5t-63 -135t-111.5 -94t-166 -35.5q-61 0 -134 13t-126 37z" />
<glyph unicode="K" horiz-adv-x="1319" d="M128 0v1491h291v-660l69 29l411 631h332l-434 -627l-116 -80l120 -83l496 -701h-360l-441 636h-77v-636h-291z" />
<glyph unicode="L" horiz-adv-x="1094" d="M128 0v1491h291v-1231h652v-260h-943z" />
<glyph unicode="M" horiz-adv-x="1703" d="M128 0v1491h266l398 -682l70 -170h10l63 174l377 678h265v-1491h-293v773l33 296h-14l-91 -238l-318 -556h-93l-334 558l-95 236h-10l43 -294v-775h-277z" />
<glyph unicode="N" horiz-adv-x="1398" d="M128 0v1502h213l564 -795l113 -228h11l-35 228v784h278v-1501h-213l-561 788l-116 234h-12l35 -234v-778h-277z" />
<glyph unicode="O" horiz-adv-x="1426" d="M81 746q0 372 164 573t468 201q161 0 280 -55t198 -157.5t117 -245t38 -316.5q0 -373 -165 -574.5t-468 -201.5q-162 0 -281 55.5t-196.5 157.5t-116 245t-38.5 318zM388 746q0 -114 19 -208.5t58 -162.5t101 -106.5t147 -38.5q156 0 241 121.5t85 394.5 q0 108 -17.5 201.5t-56 164t-100.5 109.5t-152 39q-156 0 -240.5 -124t-84.5 -390z" />
<glyph unicode="P" horiz-adv-x="1217" d="M128 0v1476q89 16 197 26t214 10q110 0 222.5 -18t201.5 -72t145.5 -151.5t56.5 -252.5q0 -140 -49 -237.5t-130 -158.5t-184 -89.5t-214 -28.5h-34.5t-49 1t-49.5 4t-36 5v-514h-291zM419 766q8 -2 25.5 -4t36.5 -3t37.5 -1h26.5q57 0 114 11t101.5 39.5t71 79.5 t26.5 134q0 71 -25.5 117t-67 73.5t-94.5 37.5t-108 10q-43 0 -81.5 -3t-62.5 -7v-484z" />
<glyph unicode="Q" horiz-adv-x="1426" d="M81 746q0 372 164 573t468 201q161 0 280 -55t198 -157.5t117 -245t38 -316.5q0 -373 -165 -574.5t-468 -201.5q-162 0 -281 55.5t-196.5 157.5t-116 245t-38.5 318zM388 746q0 -114 19 -208.5t58 -162.5t101 -106.5t147 -38.5q156 0 241 121.5t85 394.5 q0 108 -17.5 201.5t-56 164t-100.5 109.5t-152 39q-156 0 -240.5 -124t-84.5 -390zM428 -79q60 12 123 13q90 0 178 -21t180.5 -46t188 -46.5t201.5 -21.5q47 0 96.5 6t100.5 18v-254q-98 -27 -200 -27h-7q-109 0 -211 22.5t-198 48t-185.5 48t-168.5 22.5q-51 0 -98 -13 v251z" />
<glyph unicode="R" horiz-adv-x="1281" d="M128 0v1476q49 8 105.5 16t112.5 12t109.5 6t97.5 2q104 0 205.5 -19t181.5 -66t128 -129t48 -205q0 -183 -85.5 -298.5t-227.5 -160.5l104 -65l341 -569h-336l-339 583l-154 29v-612h-291zM419 809h124q122 0 194 55.5t72 183.5q0 96 -59 150t-175 54q-45 0 -88.5 -2 t-67.5 -8v-433z" />
<glyph unicode="S" horiz-adv-x="1128" d="M57 59l94 250q24 -13 61.5 -28t84 -28t98.5 -21t107 -8q130 0 199.5 43.5t69.5 132.5q0 69 -50 111t-125.5 77.5t-164 73t-164.5 91.5t-125.5 135t-49.5 207q0 108 36 188t103 133.5t159 78.5t204 25q130 0 245.5 -22t189.5 -65l-92 -244q-47 30 -140.5 54.5t-202.5 24.5 q-102 0 -156 -40.5t-54 -109.5q0 -63 50 -106t125 -79.5t163.5 -74.5t164.5 -92.5t126 -134.5t50 -198q0 -120 -39.5 -206.5t-111 -143.5t-172.5 -85t-222 -28q-160 0 -281.5 30t-179.5 59z" />
<glyph unicode="T" horiz-adv-x="1209" d="M24 1231v260h1163v-260h-435v-1231h-292v1231h-436z" />
<glyph unicode="U" horiz-adv-x="1335" d="M122 492v999h291v-942q0 -87 16 -147.5t50.5 -98t85.5 -53.5t118 -16q134 0 194 75t60 240v942h277v-963q0 -144 -38 -248.5t-106 -173t-166.5 -100.5t-215.5 -32q-566 0 -566 518z" />
<glyph unicode="V" horiz-adv-x="1281" d="M-19 1491h338l299 -875l38 -254h11l42 256l285 873h307l-553 -1501h-209z" />
<glyph unicode="W" horiz-adv-x="1835" d="M0 1491h317l199 -833l27 -264h8l30 268l260 829h192l256 -833l30 -264h8l32 268l181 829h296l-411 -1501h-196l-266 827l-36 229h-11l-36 -231l-264 -825h-207z" />
<glyph unicode="X" horiz-adv-x="1347" d="M21 0l458 758l-416 733h352l231 -430l51 -152l49 152l240 430h317l-429 -718l451 -773h-347l-262 460l-58 158l-55 -158l-264 -460h-318z" />
<glyph unicode="Y" horiz-adv-x="1260" d="M-4 1491h347l273 -560l30 -158h10l32 162l264 556h314l-488 -935v-556h-292v553z" />
<glyph unicode="Z" horiz-adv-x="1147" d="M57 0v260l631 882l111 89h-742v260h1034v-260l-635 -890l-109 -81h744v-260h-1034z" />
<glyph unicode="[" horiz-adv-x="689" d="M128 -490v1981h500v-235h-236v-1512h236v-234h-500z" />
<glyph unicode="\" horiz-adv-x="902" d="M-51 1423l217 91l767 -1717l-211 -95z" />
<glyph unicode="]" horiz-adv-x="689" d="M61 -256h237v1512h-237v235h502v-1981h-502v234z" />
<glyph unicode="^" horiz-adv-x="1064" d="M43 880l417 622h147l395 -622h-280l-151 260l-45 149l-53 -151l-166 -258h-264z" />
<glyph unicode="_" horiz-adv-x="945" d="M0 -250h945v-227h-945v227z" />
<glyph unicode="`" horiz-adv-x="672" d="M128 1470v64h289l128 -329h-153z" />
<glyph unicode="a" horiz-adv-x="1055" d="M49 294q0 98 43.5 165t125.5 109q82 41 196 57q79 11 172 11q40 0 83 -2q4 37 4 67q1 69 -21 105q-32 52 -143 52q-84 0 -176.5 -16.5t-151.5 -44.5l-66 207q86 38 203 60t245 22q110 0 185 -26.5t118 -75.5t61 -117t18 -154q0 -93 -6 -187t-7 -186v-27q0 -77 5 -151 q6 -86 32 -164h-225l-45 147h-11q-42 -66 -118 -114t-196 -48q-74 0 -133.5 22.5t-102 63.5t-66 98t-23.5 127zM335 337q0 -59 35.5 -92.5t96.5 -33.5q83 0 132 37t72 80v139q-38 3 -74 3q-27 0 -53 -2q-60 -4 -107 -18.5t-74.5 -42t-27.5 -70.5z" />
<glyph unicode="b" horiz-adv-x="1140" d="M122 47v1444h276v-511h9q44 51 114.5 81t155.5 30q191 0 292.5 -131t101.5 -399q0 -287 -141.5 -437t-388.5 -150q-136 0 -249 22.5t-170 50.5zM398 238q35 -16 74.5 -22.5t83.5 -6.5q114 0 172 81.5t58 260.5q-1 305 -190 305q-77 0 -124.5 -39t-73.5 -114v-465z" />
<glyph unicode="c" horiz-adv-x="921" d="M71 532q0 271 121 417t353 146q117 0 188.5 -19t128.5 -50l-65 -225q-49 24 -97 36.5t-110 12.5q-116 0 -175 -75.5t-59 -242.5q0 -68 15 -125.5t44.5 -100t77.5 -67t112 -24.5q71 0 119.5 18.5t86.5 43.5l65 -211q-64 -47 -155 -71.5t-186 -24.5q-128 0 -216.5 40.5 t-143.5 114t-79.5 178t-24.5 229.5z" />
<glyph unicode="d" horiz-adv-x="1147" d="M71 516q0 272 123 423.5t362 151.5q66 0 108.5 -8t85.5 -24v432h276v-1117q0 -89 2.5 -178.5t19.5 -197.5h-198l-39 138h-8q-43 -75 -122.5 -120.5t-188.5 -45.5q-201 0 -311 132t-110 414zM356 506q0 -136 48 -218.5t152 -82.5q82 0 128 39t66 114v451q-30 24 -66 35.5 t-94 11.5q-118 0 -176 -78.5t-58 -271.5z" />
<glyph unicode="e" horiz-adv-x="1081" d="M71 532q0 281 134 422t376 141q81 0 157.5 -21.5t136.5 -70t96.5 -132t36.5 -206.5q0 -45 -6 -96t-16 -107h-639q7 -134 69.5 -202.5t203.5 -68.5q87 0 156.5 27t105.5 54l91 -180q-63 -51 -172.5 -86.5t-233.5 -35.5q-258 0 -377 150t-119 412zM354 634h396q1 18 1 35 q-1 91 -37 143q-44 62 -137 62q-108 0 -160.5 -65t-62.5 -175z" />
<glyph unicode="f" horiz-adv-x="683" d="M24 831v234h147v59q0 203 85 293.5t246 90.5q171 0 284 -41l-53 -221q-49 17 -86.5 22.5t-77.5 5.5q-43 0 -67.5 -13t-36.5 -39.5t-15 -66t-3 -90.5h234v-234h-234v-831h-276v831h-147z" />
<glyph unicode="g" horiz-adv-x="1140" d="M71 512q0 285 136 432t396 147q136 0 244 -19.5t175 -45.5v-1026q0 -232 -125.5 -341.5t-351.5 -109.5q-153 0 -241.5 21t-132.5 44l57 220q49 -19 114 -38.5t160 -19.5q145 0 197.5 63t52.5 176v68h-8q-75 -100 -265 -100q-207 0 -307.5 127.5t-100.5 401.5zM356 522 q0 -156 51 -236.5t146 -80.5q81 0 125 36t68 108v480q-64 27 -158 27h-7q-106 0 -165.5 -79.5t-59.5 -254.5z" />
<glyph unicode="h" horiz-adv-x="1160" d="M122 0v1491h276v-546h9q51 69 125.5 109.5t189.5 40.5q81 0 143 -21.5t103.5 -70t61.5 -133t20 -208.5v-662h-277v605q0 130 -36 187.5t-132 57.5q-70 0 -129 -48t-78 -123v-679h-276z" />
<glyph unicode="i" horiz-adv-x="572" d="M104 1366q0 61 45.5 104.5t127.5 43.5q81 0 131 -43.5t50 -104.5q0 -62 -50 -103.5t-131 -41.5q-82 0 -127.5 41.5t-45.5 103.5zM145 0v1065h277v-1065h-277z" />
<glyph unicode="j" horiz-adv-x="569" d="M-34 -196q8 0 15 -1t13 -1q95 0 124 61.5t29 170.5v1031h277v-1110q0 -193 -77 -295.5t-245 -102.5q-64 0 -136 15v232zM109 1366q0 61 45.5 104.5t127.5 43.5q81 0 131 -43.5t50 -104.5q0 -62 -50 -103.5t-131 -41.5q-82 0 -127.5 41.5t-45.5 103.5z" />
<glyph unicode="k" horiz-adv-x="1045" d="M122 0v1491h276v-879l64 29l243 424h305l-256 -405l-108 -81l116 -83l288 -496h-317l-260 441h-75v-441h-276z" />
<glyph unicode="l" horiz-adv-x="626" d="M130 213v1278h277v-1133q0 -75 19 -109t62 -34q26 0 50.5 4.5t59.5 18.5l30 -217q-34 -17 -104.5 -34t-143.5 -17q-122 0 -186 56.5t-64 186.5z" />
<glyph unicode="m" horiz-adv-x="1713" d="M122 0v1065h215l31 -140h8q49 68 125 119t196 51q102 0 167 -41.5t101 -139.5q49 83 125.5 132t185.5 49q90 0 152.5 -21.5t101.5 -74t58.5 -139.5t19.5 -221v-639h-277v598q0 126 -26.5 189t-117.5 63q-75 0 -119 -40.5t-64 -110.5v-699h-278v579q0 147 -27.5 209 t-115.5 62q-72 0 -116.5 -39.5t-68.5 -101.5v-709h-276z" />
<glyph unicode="n" horiz-adv-x="1160" d="M122 0v1065h219l31 -140h10q49 68 129.5 119t208.5 51q79 0 140.5 -21.5t104.5 -70t64 -133t21 -208.5v-662h-277v605q0 130 -37 187.5t-127 57.5q-79 0 -133 -46t-78 -113v-691h-276z" />
<glyph unicode="o" horiz-adv-x="1142" d="M71 532q0 271 132 417t370 146q128 0 221.5 -40.5t155.5 -114t92.5 -178t30.5 -230.5q0 -270 -131 -416t-369 -146q-128 0 -221.5 40.5t-156.5 114t-93.5 178t-30.5 229.5zM356 532q0 -70 13 -129.5t38.5 -104t67 -69t98.5 -24.5q108 0 161.5 78.5t53.5 248.5 q0 147 -48.5 237.5t-166.5 90.5q-102 0 -159.5 -76.5t-57.5 -251.5z" />
<glyph unicode="p" horiz-adv-x="1149" d="M122 -426v1491h201l33 -128h8q55 81 131 119.5t184 38.5q201 0 301 -127t100 -407q0 -137 -32 -246.5t-95 -186.5t-153.5 -117.5t-207.5 -40.5q-66 0 -108.5 10t-85.5 30v-436h-276zM398 256q30 -24 65 -37.5t93 -13.5q120 0 179.5 83.5t59.5 278.5q0 140 -47.5 216.5 t-151.5 76.5q-81 0 -126.5 -40t-71.5 -121v-443z" />
<glyph unicode="q" horiz-adv-x="1140" d="M71 512q0 285 143.5 432t411.5 147q57 0 115 -5.5t110 -15t96.5 -21.5t74.5 -23v-1452h-276v518h-9q-36 -56 -98 -89t-160 -33q-197 0 -302.5 134t-105.5 408zM356 522q0 -156 51 -236.5t146 -80.5q81 0 125 36t68 108v480q-33 17 -73.5 22t-91.5 5q-113 0 -169 -85.5 t-56 -248.5z" />
<glyph unicode="r" horiz-adv-x="746" d="M122 0v1065h215l31 -140h8q37 79 99 121.5t145 42.5q55 0 126 -24l-37 -260q-65 24 -119 24q-75 0 -125 -39.5t-67 -101.5v-688h-276z" />
<glyph unicode="s" horiz-adv-x="898" d="M53 66l77 206q49 -28 130 -54.5t166 -26.5q62 0 99.5 24t37.5 79q0 43 -36.5 68.5t-89.5 47t-117 43.5t-117.5 61t-89.5 100t-36 157q0 158 93.5 241t270.5 83q122 0 219.5 -25.5t152.5 -57.5l-61 -201q-49 19 -124 41t-151 22q-123 0 -123 -96q0 -39 36 -62t89 -43.5 t117 -44t117 -61t89.5 -97t36.5 -153.5q0 -162 -103.5 -254.5t-309.5 -92.5q-113 0 -212 29t-161 67z" />
<glyph unicode="t" horiz-adv-x="742" d="M10 831v234h148v201l277 78v-279h260v-234h-260v-409q0 -110 22 -158.5t84 -48.5q42 0 73.5 8.5t68.5 26.5l50 -214q-57 -28 -134 -47t-156 -19q-147 0 -216 76t-69 248v537h-148z" />
<glyph unicode="u" horiz-adv-x="1145" d="M110 402v663h278v-605q0 -130 30.5 -187.5t120.5 -57.5q79 0 131 47t78 114v689h276v-742q0 -87 8.5 -170.5t26.5 -152.5h-209l-49 158h-9q-48 -81 -135.5 -134.5t-207.5 -53.5q-81 0 -145 21t-106 70t-65 132.5t-23 208.5z" />
<glyph unicode="v" horiz-adv-x="1015" d="M-30 1065h322l198 -559l36 -163h11l30 169l181 553h298l-445 -1075h-168z" />
<glyph unicode="w" horiz-adv-x="1535" d="M-17 1065h300l156 -535l25 -189h11l37 191l176 533h204l194 -545l38 -177h10l29 179l136 543h254l-328 -1075h-205l-215 596l-27 134h-12l-24 -137l-205 -593h-211z" />
<glyph unicode="x" horiz-adv-x="1118" d="M17 0l345 545l-319 520h329l140 -228l59 -149l63 149l146 228h300l-322 -512l343 -553h-321l-164 256l-65 157l-67 -157l-165 -256h-302z" />
<glyph unicode="y" horiz-adv-x="1017" d="M-19 1065h332l196 -598l38 -166h14l27 168l162 596h285l-324 -961q-40 -120 -77.5 -218.5t-82.5 -171t-99 -112t-129 -39.5q-110 0 -176 37l51 221q32 -12 64 -12q49 0 94.5 41.5t69.5 149.5z" />
<glyph unicode="z" horiz-adv-x="974" d="M66 0v234l420 505l108 92h-528v234h835v-234l-415 -514l-106 -83h521v-234h-835z" />
<glyph unicode="{" horiz-adv-x="789" d="M92 394v213q81 0 125.5 44t44.5 137v445q0 116 54 188t174 72h256v-235h-107q-58 0 -84.5 -29.5t-26.5 -98.5v-414q0 -94 -44.5 -142t-103.5 -58v-22q57 -8 102.5 -64t45.5 -145v-413q0 -69 25.5 -98.5t87.5 -29.5h105v-234h-256q-110 0 -169 67t-59 191v437 q0 108 -44.5 148.5t-125.5 40.5z" />
<glyph unicode="|" horiz-adv-x="482" d="M128 -277v1768h228v-1768h-228z" />
<glyph unicode="}" horiz-adv-x="789" d="M75 -256h106q57 0 84 29t27 99v415q0 94 45 142t104 59v21q-57 8 -103 63.5t-46 145.5v412q0 66 -26 97t-87 31h-104v235h253q113 0 170.5 -67t57.5 -190v-437q0 -108 45 -149t125 -41v-213q-81 0 -125.5 -43.5t-44.5 -137.5v-445q0 -115 -56.5 -187.5t-176.5 -72.5h-248 v234z" />
<glyph unicode="~" horiz-adv-x="1122" d="M59 805q100 81 180 111.5t149 30.5q61 0 114.5 -17.5t102.5 -37.5t97 -38.5t97 -18.5q38 0 78.5 12.5t85.5 48.5l100 -219q-77 -57 -141 -80.5t-119 -23.5q-59 0 -110.5 19.5t-99.5 42.5t-97 42.5t-104 19.5q-51 0 -109.5 -22.5t-129.5 -82.5z" />
<glyph unicode="&#xa2;" d="M179 532q0 239 102.5 381t295.5 173v192h258v-192q59 -9 106 -22.5t85 -32.5l-63 -226q-32 15 -68.5 23.5t-74.5 12.5v-619q48 6 87.5 21t70.5 32l63 -209q-36 -29 -90.5 -48.5t-115.5 -29.5v-201h-258v189q-108 15 -184 61t-123.5 117.5t-69 167t-21.5 210.5zM451 532 q0 -108 40.5 -190t136.5 -112v609q-89 -24 -133 -97t-44 -210z" />
<glyph unicode="&#xa3;" d="M108 0v245h5q66 3 116 24t83 56t50.5 81.5t17.5 97.5q0 58 -14 108h-258v227h146q-28 51 -48.5 115t-20.5 154q0 104 35.5 182t98.5 129t150 76t191 25q130 0 237 -24t183 -61l-90 -246q-43 24 -117 47.5t-178 23.5q-102 0 -160 -47.5t-58 -143.5q0 -73 26.5 -125 t59.5 -105h299v-227h-208q6 -37 6 -73q0 -64 -21 -134t-66 -115l-91 -66v-11l142 32h490v-245h-1006z" />
<glyph unicode="&#xa5;" d="M-30 1491h347l273 -560l30 -158h10l32 162l265 556h313l-405 -773h194v-171h-277v-123h277v-170h-277v-254h-292v254h-279v170h279v123h-279v171h191z" />
<glyph unicode="&#xa8;" horiz-adv-x="1019" d="M128 1386q0 69 41.5 109.5t109.5 40.5t107.5 -40.5t39.5 -109.5q0 -63 -39.5 -103.5t-107.5 -40.5q-69 0 -110 40.5t-41 103.5zM594 1386q0 69 39.5 109.5t108.5 40.5q68 0 109 -40.5t41 -109.5q0 -63 -41.5 -103.5t-108.5 -40.5q-69 0 -108.5 40.5t-39.5 103.5z" />
<glyph unicode="&#xa9;" horiz-adv-x="1773" d="M118 618q0 177 59 318t162.5 241.5t244 154.5t302.5 54t301.5 -54t244 -154.5t164 -241.5t59.5 -318t-59.5 -318.5t-164 -242t-244 -154.5t-301.5 -54q-177 0 -319.5 54t-242.5 154.5t-153 242t-53 318.5zM326 618q0 -132 41.5 -239t117.5 -180t177.5 -112.5t223.5 -39.5 t225 39.5t179 112.5t117.5 180t41.5 239t-41.5 238.5t-117.5 180t-179 113t-225 39.5t-223.5 -39.5t-177.5 -113t-117.5 -180t-41.5 -238.5zM528 618q0 193 97 298.5t257 105.5q79 0 139.5 -18t116.5 -49l-69 -186q-38 18 -69 25t-61 7q-61 0 -97.5 -40.5t-36.5 -142.5 q0 -183 150 -183q40 0 72 7t64 25l61 -188q-46 -30 -117.5 -48t-152.5 -18q-173 0 -263.5 109t-90.5 296z" />
<glyph unicode="&#xab;" horiz-adv-x="1038" d="M61 551l341 490l169 -132l-185 -268l-103 -88l103 -76l197 -264l-168 -132zM475 556l328 460l152 -120l-173 -260l-99 -83l99 -74l185 -257l-152 -120z" />
<glyph unicode="&#xad;" horiz-adv-x="766" d="M115 490v245h535v-245h-535z" />
<glyph unicode="&#xae;" horiz-adv-x="1469" d="M132 961q0 142 48 254t131 188.5t193 117t231 40.5q126 0 235.5 -40.5t190.5 -117t127.5 -188.5t46.5 -254q0 -145 -47.5 -257t-130 -188.5t-192 -116t-230.5 -39.5q-126 0 -235.5 39.5t-191.5 116t-129 188.5t-47 257zM332 961q0 -102 33 -180t88.5 -129t128 -77 t153.5 -26q86 0 159 24.5t126 76t84.5 129t31.5 182.5q0 102 -32.5 178.5t-86.5 128t-128 77t-154 25.5q-89 0 -164 -27.5t-128 -81.5t-82 -129t-29 -171zM516 685v553q34 10 95.5 15t116.5 5q89 0 153 -36.5t64 -128.5q0 -69 -43.5 -105t-106.5 -41l59 -29l138 -233h-130 l-134 222l-102 32v-254h-110zM626 1004h73q61 0 95.5 18.5t34.5 66.5q0 74 -124 74q-24 0 -45 -1t-34 -8v-150z" />
<glyph unicode="&#xb4;" horiz-adv-x="648" d="M128 1205l112 329h282v-64l-237 -265h-157z" />
<glyph unicode="&#xb8;" horiz-adv-x="706" d="M128 -435l19 103q14 -2 27 -2.5t24 -0.5q81 0 104.5 19.5t23.5 45.5q0 59 -184 67l122 203h179l-51 -92q87 -8 137 -45.5t50 -114.5q0 -49 -24.5 -84.5t-67 -60.5t-100 -37.5t-123.5 -12.5q-65 0 -136 12z" />
<glyph unicode="&#xbb;" horiz-adv-x="1038" d="M73 901l149 119l341 -453l-327 -461l-153 120l175 260l96 83l-96 74zM456 909l168 132l354 -470l-342 -490l-167 132l185 269l102 87l-102 77z" />
<glyph unicode="&#x2c6;" horiz-adv-x="937" d="M128 1171l262 388h183l236 -388h-219l-84 141l-35 104l-36 -104l-96 -141h-211z" />
<glyph unicode="&#x2da;" horiz-adv-x="728" d="M128 1378q0 89 61 147t175 58q108 0 172.5 -52.5t64.5 -152.5q0 -83 -63 -141.5t-174 -58.5q-113 0 -174.5 54t-61.5 146zM281 1378q0 -34 25.5 -52.5t57.5 -18.5q36 0 59.5 17.5t23.5 53.5t-24.5 54.5t-58.5 18.5q-32 0 -57.5 -17.5t-25.5 -55.5z" />
<glyph unicode="&#x2dc;" horiz-adv-x="962" d="M128 1402q65 79 122 108.5t108 29.5q42 0 81.5 -15t78 -32t74.5 -31.5t75 -14.5q30 0 60.5 12.5t64.5 44.5l43 -149q-61 -69 -113.5 -94t-101.5 -25q-43 0 -83.5 13.5t-79 30.5t-76.5 31t-76 14q-33 0 -66.5 -14t-70.5 -48z" />
<glyph unicode="&#x401;" horiz-adv-x="1111" d="M128 0v1491h884v-260h-593v-347h540v-260h-540v-364h603v-260h-894zM175 1699q0 55 38.5 89.5t123.5 34.5q83 0 121 -33.5t38 -90.5q0 -55 -38.5 -87.5t-120.5 -32.5q-85 0 -123.5 32.5t-38.5 87.5zM630 1699q0 55 38.5 89.5t122.5 34.5q85 0 123 -33.5t38 -90.5 q0 -55 -38 -87.5t-123 -32.5q-84 0 -122.5 32.5t-38.5 87.5z" />
<glyph unicode="&#x402;" horiz-adv-x="1575" d="M24 1231v260h1163v-260h-435v-304q34 12 106.5 29t187.5 17q83 0 163 -21t143.5 -75t103.5 -147.5t40 -235.5q0 -248 -122 -378.5t-392 -130.5q-60 0 -89 2.5t-45 6.5v248q14 -4 49.5 -5t71.5 -1q106 0 163 62t57 184q0 72 -19.5 118t-53.5 71.5t-81 33.5t-102 8 q-49 0 -103.5 -12.5t-77.5 -25.5v-675h-292v1231h-436z" />
<glyph unicode="&#x403;" horiz-adv-x="974" d="M128 0v1491h866v-260h-575v-1231h-291zM400 1602l221 251h339v-64l-341 -187h-219z" />
<glyph unicode="&#x404;" horiz-adv-x="1228" d="M81 746q0 219 62 366.5t160.5 238t221.5 130t246 39.5q128 0 224 -16.5t153 -40.5l-55 -253q-49 23 -125 36.5t-171 13.5q-75 0 -142 -22t-119 -69t-89.5 -117t-52.5 -166h586v-238h-592q24 -189 133 -303.5t296 -114.5q96 0 171 19t122 47l59 -235q-32 -24 -80 -41.5 t-102 -28t-112 -16t-113 -5.5q-138 0 -262 41.5t-216.5 134t-147.5 241t-55 359.5z" />
<glyph unicode="&#x405;" horiz-adv-x="1128" d="M57 59l94 250q24 -13 61.5 -28t84 -28t98.5 -21t107 -8q130 0 199.5 43.5t69.5 132.5q0 69 -50 111t-125.5 77.5t-164 73t-164.5 91.5t-125.5 135t-49.5 207q0 108 36 188t103 133.5t159 78.5t204 25q130 0 245.5 -22t189.5 -65l-92 -244q-47 30 -140.5 54.5t-202.5 24.5 q-102 0 -156 -40.5t-54 -109.5q0 -63 50 -106t125 -79.5t163.5 -74.5t164.5 -92.5t126 -134.5t50 -198q0 -120 -39.5 -206.5t-111 -143.5t-172.5 -85t-222 -28q-160 0 -281.5 30t-179.5 59z" />
<glyph unicode="&#x406;" horiz-adv-x="606" d="M158 0v1491h291v-1491h-291z" />
<glyph unicode="&#x407;" horiz-adv-x="630" d="M41 1687q0 65 32.5 100.5t94.5 35.5q60 0 93 -35t33 -101q0 -64 -33 -98t-93 -34q-61 0 -94 34t-33 98zM168 0v1491h292v-1491h-292zM339 1687q0 65 33 100.5t92 35.5q61 0 94.5 -35t33.5 -101q0 -64 -33 -98t-95 -34q-59 0 -92 34t-33 98z" />
<glyph unicode="&#x408;" horiz-adv-x="711" d="M-49 24l64 238q55 -28 125 -28q90 0 114.5 66t24.5 175v1016h292v-1091q0 -85 -19.5 -161.5t-63 -135t-111.5 -94t-166 -35.5q-61 0 -134 13t-126 37z" />
<glyph unicode="&#x409;" horiz-adv-x="1990" d="M-28 15l32 251q13 -4 26 -6t25 -2q34 0 67.5 17t56.5 57q32 47 55.5 138t41.5 231t28.5 335t14.5 455h880v-534q11 2 35 5t53.5 5l59 4t55.5 2q104 0 201.5 -21t173.5 -75t121 -147.5t45 -235.5q0 -256 -158.5 -385.5t-455.5 -129.5q-26 0 -64 1t-83.5 3t-97 6.5 t-98.5 10.5h-79v1231h-317q-9 -202 -19 -368t-28.5 -299t-48.5 -235.5t-77 -177.5q-30 -49 -67 -81t-77.5 -51t-80 -26.5t-72.5 -7.5q-49 0 -82.5 7.5t-65.5 22.5zM1199 252q24 -7 63 -10.5t82 -3.5q59 0 112.5 12t94 40.5t63 75.5t22.5 116q0 72 -24.5 118t-64 71.5 t-92.5 33.5t-111 8q-15 0 -36.5 -2t-42.5 -4t-39.5 -5t-26.5 -5v-445z" />
<glyph unicode="&#x40a;" horiz-adv-x="2048" d="M128 0v1491h291v-582h546v582h291v-566q11 2 36 5t53.5 5t58 4t55.5 2q104 0 202.5 -19t173.5 -70t120 -140.5t45 -232.5q0 -255 -157.5 -377.5t-456.5 -122.5q-30 0 -81 2t-109 5.5t-120 8.5t-111 11v644h-546v-650h-291zM1256 252q24 -7 63.5 -10.5t82.5 -3.5 q65 0 120 11t93 37.5t58 70t20 110.5q0 69 -21.5 110t-59.5 64.5t-92.5 31.5t-117.5 8q-15 0 -36.5 -2l-43 -4t-39 -6t-27.5 -7v-410z" />
<glyph unicode="&#x40b;" horiz-adv-x="1614" d="M24 1231v260h1163v-260h-435v-377q53 32 145.5 59.5t220.5 27.5q89 0 164 -23.5t129 -72t84 -127.5t30 -190v-528h-292v439q0 128 -51.5 191t-165.5 63q-81 0 -151 -18.5t-113 -54.5v-620h-292v1231h-436z" />
<glyph unicode="&#x40c;" horiz-adv-x="1319" d="M128 0v1491h291v-660l69 29l411 631h332l-434 -627l-116 -80l120 -83l496 -701h-360l-441 636h-77v-636h-291zM456 1602l221 251h339v-64l-341 -187h-219z" />
<glyph unicode="&#x40e;" horiz-adv-x="1209" d="M-19 1491h342l303 -658l43 -194h12l35 200l223 652h301l-397 -1031q-46 -122 -90 -211t-94 -147.5t-111.5 -87.5t-145.5 -29q-70 0 -113.5 9.5t-95.5 41.5l75 236q37 -18 66.5 -22.5t63.5 -4.5q100 0 141 157zM222 1819l264 43q8 -69 50 -98.5t107 -29.5q143 0 158 126 l236 -37q-24 -134 -122.5 -196t-273.5 -62q-87 0 -159.5 13t-126.5 41.5t-89.5 77.5t-43.5 122z" />
<glyph unicode="&#x40f;" horiz-adv-x="1360" d="M128 0v1491h291v-1231h522v1231h292v-1491h-426l-32 -372h-187l-43 372h-417z" />
<glyph unicode="&#x410;" horiz-adv-x="1288" d="M0 0l537 1502h215l537 -1502h-307l-120 330h-457l-113 -330h-292zM479 565h320l-111 331l-45 234h-11l-44 -236z" />
<glyph unicode="&#x411;" horiz-adv-x="1213" d="M128 15v1476h918v-260h-627v-311q37 7 89.5 13t103.5 6q119 0 219 -23.5t171 -77.5t111.5 -142.5t40.5 -216.5q0 -125 -41.5 -219t-119 -155.5t-187 -93.5t-245.5 -32q-37 0 -91.5 2t-115 6.5t-120 10.5t-106.5 17zM419 230q24 -6 72 -8.5t90 -2.5q55 0 103.5 14.5 t84.5 43t57.5 73t21.5 108.5q0 77 -23.5 123.5t-64 73t-92.5 35.5t-112 9q-30 0 -74.5 -5.5t-62.5 -10.5v-453z" />
<glyph unicode="&#x412;" horiz-adv-x="1258" d="M128 10v1470q40 6 92 13t112 11t123 6t124 2q104 0 203.5 -16t177 -56t124 -113t46.5 -183q0 -55 -13.5 -110.5t-45.5 -101.5t-83 -81.5t-124 -51.5v-13q64 -10 122 -36t100 -71t67 -109t25 -151q0 -115 -49 -199t-131 -137t-186.5 -78.5t-215.5 -25.5h-92.5t-121.5 3 t-132 9.5t-122 18.5zM409 232q10 -4 34 -6t50.5 -3t55 -2.5t49.5 -1.5q53 0 103.5 13t89 39.5t62 67.5t23.5 96q0 70 -28 110.5t-73 62.5t-100 28.5t-110 6.5h-156v-411zM409 864h93q30 0 70 2.5t64 7.5q82 26 140.5 77t58.5 133q0 55 -21.5 91.5t-56.5 57.5t-80 30t-94 9 q-55 0 -101.5 -2t-72.5 -7v-399z" />
<glyph unicode="&#x413;" horiz-adv-x="974" d="M128 0v1491h866v-260h-575v-1231h-291z" />
<glyph unicode="&#x414;" horiz-adv-x="1471" d="M0 260h158q15 24 48.5 104.5t68 229t58 371t21.5 526.5h892v-1231h189v-526h-206l-32 266h-959l-31 -266h-207v526zM467 260h488v971h-331q-12 -379 -60 -621t-97 -350z" />
<glyph unicode="&#x415;" horiz-adv-x="1111" d="M128 0v1491h884v-260h-593v-347h540v-260h-540v-364h603v-260h-894z" />
<glyph unicode="&#x416;" horiz-adv-x="1786" d="M-15 0l389 654l116 83l-110 78l-365 676h339l308 -637h84v637h276v-662l75 29l309 633h328l-348 -654l-100 -73l122 -89l392 -675h-351l-343 648h-84v-648h-276v673l-77 -30l-343 -643h-341z" />
<glyph unicode="&#x417;" horiz-adv-x="1120" d="M38 49l75 254q49 -24 140.5 -48.5t217.5 -24.5q47 0 95 12t86.5 38.5t61.5 69t23 101.5q0 100 -74.5 151.5t-266.5 55.5q-26 2 -38.5 2h-44.5h-57v228h51h47t56.5 1t56 4t45.5 8q75 16 128 60.5t53 118.5q0 101 -65 138.5t-172 37.5q-96 0 -179.5 -25.5t-125.5 -48.5 l-74 247q24 12 67 27.5t100 29.5t123 22t133 8q94 0 183.5 -17t160 -59.5t113 -114t42.5 -181.5t-58.5 -204t-188.5 -137v-11q138 -28 216 -119.5t78 -244.5q0 -121 -49.5 -207.5t-129 -141.5t-184 -82t-212.5 -27q-140 0 -255.5 23.5t-177.5 55.5z" />
<glyph unicode="&#x418;" horiz-adv-x="1417" d="M128 0v1491h291v-812l-21 -200h13l105 206l555 806h218v-1491h-293v827l18 193h-10l-101 -200l-556 -820h-219z" />
<glyph unicode="&#x419;" horiz-adv-x="1417" d="M128 0v1491h291v-812l-21 -200h13l105 206l555 806h218v-1491h-293v827l18 193h-10l-101 -200l-556 -820h-219zM317 1819l264 43q8 -69 50 -98.5t107 -29.5q143 0 158 126l236 -37q-24 -134 -122.5 -196t-273.5 -62q-87 0 -159.5 13t-126.5 41.5t-89.5 77.5t-43.5 122z " />
<glyph unicode="&#x41a;" horiz-adv-x="1319" d="M128 0v1491h291v-660l69 29l411 631h332l-434 -627l-116 -80l120 -83l496 -701h-360l-441 636h-77v-636h-291z" />
<glyph unicode="&#x41b;" horiz-adv-x="1326" d="M-28 15l32 251q13 -4 26 -6t25 -2q34 0 67.5 17t56.5 57q32 47 55.5 138t41.5 231t28.5 335t14.5 455h880v-1491h-292v1231h-317q-9 -202 -19 -368t-28.5 -299t-48.5 -235.5t-77 -177.5q-30 -49 -67 -81t-77.5 -51t-80 -26.5t-72.5 -7.5q-49 0 -82.5 7.5t-65.5 22.5z" />
<glyph unicode="&#x41c;" horiz-adv-x="1703" d="M128 0v1491h266l398 -682l70 -170h10l63 174l377 678h265v-1491h-293v773l33 296h-14l-91 -238l-318 -556h-93l-334 558l-95 236h-10l43 -294v-775h-277z" />
<glyph unicode="&#x41d;" horiz-adv-x="1386" d="M128 0v1491h291v-607h546v607h291v-1491h-291v624h-546v-624h-291z" />
<glyph unicode="&#x41e;" horiz-adv-x="1426" d="M81 746q0 372 164 573t468 201q161 0 280 -55t198 -157.5t117 -245t38 -316.5q0 -373 -165 -574.5t-468 -201.5q-162 0 -281 55.5t-196.5 157.5t-116 245t-38.5 318zM388 746q0 -114 19 -208.5t58 -162.5t101 -106.5t147 -38.5q156 0 241 121.5t85 394.5 q0 108 -17.5 201.5t-56 164t-100.5 109.5t-152 39q-156 0 -240.5 -124t-84.5 -390z" />
<glyph unicode="&#x41f;" horiz-adv-x="1360" d="M128 0v1491h1105v-1491h-292v1231h-522v-1231h-291z" />
<glyph unicode="&#x420;" horiz-adv-x="1217" d="M128 0v1476q89 16 197 26t214 10q110 0 222.5 -18t201.5 -72t145.5 -151.5t56.5 -252.5q0 -140 -49 -237.5t-130 -158.5t-184 -89.5t-214 -28.5h-34.5t-49 1t-49.5 4t-36 5v-514h-291zM419 766q8 -2 25.5 -4t36.5 -3t37.5 -1h26.5q57 0 114 11t101.5 39.5t71 79.5 t26.5 134q0 71 -25.5 117t-67 73.5t-94.5 37.5t-108 10q-43 0 -81.5 -3t-62.5 -7v-484z" />
<glyph unicode="&#x421;" horiz-adv-x="1189" d="M81 746q0 219 61 366.5t157.5 238t215.5 130t239 39.5q128 0 216.5 -16.5t145.5 -40.5l-57 -247q-49 24 -116 34t-163 10q-177 0 -284.5 -125t-107.5 -389q0 -116 25.5 -210.5t77.5 -161.5t130 -104.5t180 -37.5q95 0 161.5 19t114.5 50l61 -240q-69 -49 -174.5 -70 t-215.5 -21q-134 0 -255 41.5t-212.5 134t-145.5 241t-54 359.5z" />
<glyph unicode="&#x422;" horiz-adv-x="1209" d="M24 1231v260h1163v-260h-435v-1231h-292v1231h-436z" />
<glyph unicode="&#x423;" horiz-adv-x="1209" d="M-19 1491h342l303 -658l43 -194h12l35 200l223 652h301l-397 -1031q-46 -122 -90 -211t-94 -147.5t-111.5 -87.5t-145.5 -29q-70 0 -113.5 9.5t-95.5 41.5l75 236q37 -18 66.5 -22.5t63.5 -4.5q100 0 141 157z" />
<glyph unicode="&#x424;" horiz-adv-x="1707" d="M55 746q0 144 37.5 258t106.5 194t165 122.5t213 42.5q28 0 68 -2t66 -9v182h285v-188q41 10 93.5 13.5t83.5 3.5q104 0 192 -37t153 -112.5t101 -187.5t34 -260q2 -150 -38.5 -265t-111 -193t-163 -117.5t-198.5 -39.5q-34 0 -73.5 3.5t-72.5 11.5v-209h-285v205 q-40 -6 -82.5 -8.5t-91.5 -2.5q-102 0 -189.5 35.5t-152.5 108.5t-102.5 185t-37.5 266zM347 748q0 -173 72.5 -266.5t192.5 -93.5q16 0 51.5 1t58.5 9v722q-21 4 -48.5 5t-51.5 1q-118 0 -196.5 -90.5t-78.5 -287.5zM986 392q19 -4 46 -4t50 -2q59 2 110.5 23.5t90 68 t59.5 117t19 169.5q2 171 -66 266.5t-189 97.5q-21 -2 -57.5 -4t-62.5 -8v-724z" />
<glyph unicode="&#x425;" horiz-adv-x="1347" d="M21 0l458 758l-416 733h352l231 -430l51 -152l49 152l240 430h317l-429 -718l451 -773h-347l-262 460l-58 158l-55 -158l-264 -460h-318z" />
<glyph unicode="&#x426;" horiz-adv-x="1451" d="M128 0v1491h291v-1231h514v1231h292v-1231h191v-526h-206l-32 266h-1050z" />
<glyph unicode="&#x427;" horiz-adv-x="1290" d="M98 927v564h292v-473q0 -128 50 -191t165 -63q81 0 152.5 18.5t114.5 54.5v654h291v-1491h-291v601q-56 -32 -149 -58.5t-221 -26.5q-89 0 -162.5 22.5t-127.5 72t-84 127t-30 189.5z" />
<glyph unicode="&#x428;" horiz-adv-x="1833" d="M128 0v1491h291v-1231h352v1231h292v-1231h351v1231h292v-1491h-1578z" />
<glyph unicode="&#x429;" horiz-adv-x="1939" d="M128 0v1491h291v-1231h352v1231h292v-1231h351v1231h292v-1231h196v-526h-205l-31 266h-1538z" />
<glyph unicode="&#x42a;" horiz-adv-x="1413" d="M-8 1231v260h630v-534q10 2 34.5 5t53.5 5t60 4t57 2q104 0 200.5 -21t172.5 -75t121 -147.5t45 -235.5q0 -256 -158 -385.5t-456 -129.5q-30 0 -81 1t-110 5.5t-119 10.5t-112 19v1216h-338zM622 252q24 -7 63 -10.5t81 -3.5q60 0 113.5 12t94 40.5t63 75.5t22.5 116 q0 72 -24.5 118t-64 71.5t-92.5 33.5t-112 8q-14 0 -35.5 -2t-42.5 -4t-39.5 -5t-26.5 -5v-445z" />
<glyph unicode="&#x42b;" horiz-adv-x="1699" d="M128 15v1476h291v-534q24 4 75 10t100 6q106 0 203 -21t169.5 -75t115 -147.5t42.5 -233.5q0 -260 -150.5 -388.5t-449.5 -128.5q-30 0 -77 1t-101 5.5t-111.5 10.5t-106.5 19zM419 252q24 -7 57 -10.5t69 -3.5q122 0 197 57t75 189q0 70 -21 114.5t-57 70.5t-85 35 t-107 9q-30 0 -70 -5t-58 -11v-445zM1278 0v1491h291v-1491h-291z" />
<glyph unicode="&#x42c;" horiz-adv-x="1211" d="M128 15v1476h291v-534q11 2 35.5 5t53.5 5t58.5 4t55.5 2q104 0 202 -21t173.5 -75t120.5 -147.5t45 -235.5q0 -256 -158.5 -385.5t-455.5 -129.5q-30 0 -80 1t-109 5.5t-120 10.5t-112 19zM419 252q24 -7 63.5 -10.5t82.5 -3.5q59 0 112 12t93.5 40.5t63 75.5t22.5 116 q0 72 -24.5 118t-64 71.5t-92.5 33.5t-110 8q-15 0 -37 -2t-43 -4t-39 -5t-27 -5v-445z" />
<glyph unicode="&#x42d;" horiz-adv-x="1222" d="M43 41l77 253q48 -24 131.5 -44t191.5 -20q83 0 153.5 23.5t124.5 73t88 126.5t43 186h-575v235h573q-7 85 -35.5 156t-77.5 122t-121.5 79.5t-164.5 28.5q-115 0 -200 -24t-138 -54l-62 247q75 38 188 64.5t223 26.5q146 0 271 -40.5t215.5 -133t142 -240t51.5 -360.5 q0 -222 -60 -371t-159.5 -238.5t-229.5 -128t-271 -38.5q-121 0 -220.5 21t-158.5 50z" />
<glyph unicode="&#x42e;" horiz-adv-x="1910" d="M128 0v1491h291v-607h199q28 305 178.5 470.5t424.5 165.5q162 0 276.5 -55t188.5 -157.5t108.5 -245t34.5 -316.5q0 -373 -153 -574.5t-455 -201.5q-140 0 -248.5 46.5t-182.5 132t-117 207t-55 268.5h-199v-624h-291zM916 746q0 -114 15.5 -208.5t51 -162.5 t94.5 -106.5t144 -38.5q156 0 229 121.5t73 394.5q0 108 -13.5 201.5t-48 164t-93 109.5t-147.5 39q-153 0 -229 -124t-76 -390z" />
<glyph unicode="&#x42f;" horiz-adv-x="1234" d="M10 0l307 496l128 92q-69 16 -128 51.5t-104 91t-70 131t-25 171.5q0 134 46.5 225.5t129 148t198 81t250.5 24.5q36 0 83 -2t96.5 -6t97.5 -10.5t87 -17.5v-1476h-293v590l-153 -41l-311 -549h-339zM424 1020q0 -65 21.5 -111.5t59.5 -75t89.5 -41t110.5 -12.5h108v462 q-24 4 -47.5 7t-60.5 3q-57 0 -108.5 -10.5t-89.5 -36t-60.5 -70t-22.5 -115.5z" />
<glyph unicode="&#x430;" horiz-adv-x="1055" d="M49 294q0 98 43.5 165t126 108.5t196 57.5t254.5 9q14 120 -17.5 172t-142.5 52q-84 0 -176.5 -16.5t-151.5 -44.5l-66 207q86 38 203 60t245 22q110 0 185 -26.5t118 -75.5t61 -117t18 -154q0 -93 -6 -187.5t-7 -186t5 -178t32 -163.5h-225l-45 147h-11 q-42 -66 -118 -114t-196 -48q-74 0 -133.5 22.5t-102 63.5t-66 98t-23.5 127zM335 337q0 -59 35.5 -92.5t96.5 -33.5q83 0 132 37t72 80v139q-66 6 -126.5 1.5t-107.5 -19t-74.5 -42t-27.5 -70.5z" />
<glyph unicode="&#x431;" horiz-adv-x="1142" d="M71 646q0 183 21 313t60 219.5t94 142.5t122 83.5t143.5 43.5t161.5 22q110 10 189 26t118 53l10 -248q-43 -36 -121.5 -49.5t-212.5 -24.5q-81 -4 -143 -19t-106.5 -53.5t-71 -107.5t-39.5 -183h7q61 94 145 135.5t204 41.5q194 0 307.5 -118t113.5 -367 q0 -287 -130 -436.5t-366 -149.5q-247 0 -376.5 164t-129.5 512zM356 520q0 -136 53 -225.5t164 -89.5q115 0 165 80.5t50 234.5q0 138 -46.5 212.5t-155.5 74.5q-118 0 -174 -76.5t-56 -210.5z" />
<glyph unicode="&#x432;" horiz-adv-x="1075" d="M122 2v1061q75 6 180 12.5t226 6.5q234 0 333.5 -67.5t99.5 -201.5q0 -75 -42.5 -145t-134.5 -101v-9q116 -26 167 -91t51 -166q0 -161 -123 -239.5t-393 -78.5q-90 0 -190 5.5t-174 13.5zM392 213q30 -4 55.5 -6t64.5 -2q115 0 163.5 31.5t48.5 98.5q0 55 -41.5 90 t-147.5 35h-143v-247zM392 630h147q68 0 112 33.5t44 84.5q0 55 -37.5 83.5t-135.5 28.5q-49 0 -78 -2t-52 -4v-224z" />
<glyph unicode="&#x433;" horiz-adv-x="800" d="M122 0v1065h687v-245h-402v-820h-285z" />
<glyph unicode="&#x434;" horiz-adv-x="1209" d="M-4 -242v487h126q16 24 42.5 80.5t53.5 154t46 242.5t19 343h741v-820h156v-487h-202l-33 242h-715l-32 -242h-202zM398 232h350v599h-224q-4 -77 -15 -163.5t-26.5 -167.5t-37 -151t-47.5 -117z" />
<glyph unicode="&#x435;" horiz-adv-x="1081" d="M71 532q0 281 134 422t376 141q81 0 157.5 -21.5t136.5 -70t96.5 -132t36.5 -206.5q0 -45 -6 -96t-16 -107h-639q7 -134 69.5 -202.5t203.5 -68.5q87 0 156.5 27t105.5 54l91 -180q-63 -51 -172.5 -86.5t-233.5 -35.5q-258 0 -377 150t-119 412zM354 634h396 q8 116 -35.5 178t-137.5 62q-108 0 -160.5 -65t-62.5 -175z" />
<glyph unicode="&#x436;" horiz-adv-x="1475" d="M-12 0l278 488l73 63l-109 81l-220 433h297l197 -433h92v433h264v-453l81 29l201 424h293l-232 -433l-83 -67l109 -86l258 -479h-318l-217 441h-92v-441h-264v462l-80 -29l-218 -433h-310z" />
<glyph unicode="&#x437;" horiz-adv-x="919" d="M47 57l59 215q49 -28 118.5 -44.5t155.5 -16.5q193 0 193 124q0 55 -50 80.5t-186 25.5h-105v193h130q75 0 122.5 30.5t47.5 79.5q0 57 -42.5 81.5t-129.5 24.5q-83 0 -147 -21.5t-103 -44.5l-59 210q63 37 169 63.5t225 26.5q183 0 273.5 -68.5t90.5 -198.5 q0 -36 -9.5 -73t-30.5 -71t-52.5 -60.5t-73.5 -41.5v-8q113 -26 160 -91t47 -174q0 -68 -27.5 -126.5t-84.5 -101t-141.5 -68.5t-202.5 -26q-117 0 -203.5 25t-143.5 56z" />
<glyph unicode="&#x438;" horiz-adv-x="1160" d="M122 0v1065h276v-507l-12 -145h8l88 152l382 500h175v-1065h-277v486l11 150h-7l-91 -154l-379 -482h-174z" />
<glyph unicode="&#x439;" horiz-adv-x="1160" d="M122 0v1065h276v-507l-12 -145h8l88 152l382 500h175v-1065h-277v486l11 150h-7l-91 -154l-379 -482h-174zM232 1445l234 55q14 -84 49.5 -118t90.5 -34q60 0 95 34t49 116l210 -53q-26 -139 -126 -206.5t-234 -67.5q-65 0 -127 15t-111 48.5t-83.5 84.5t-46.5 126z" />
<glyph unicode="&#x43a;" horiz-adv-x="1041" d="M122 0v1065h276v-453l66 29l249 424h297l-258 -405l-109 -81l119 -83l288 -496h-317l-260 441h-75v-441h-276z" />
<glyph unicode="&#x43b;" horiz-adv-x="1096" d="M-36 19l34 231q34 -13 63 -14q43 0 75 36.5t54.5 130t36 254t21.5 408.5h730v-1065h-277v820h-211q-13 -151 -30 -300.5t-54.5 -267.5t-101.5 -191t-166 -73q-123 0 -174 31z" />
<glyph unicode="&#x43c;" horiz-adv-x="1417" d="M122 0v1065h287l245 -400l59 -135h9l62 139l226 396h289v-1065h-266v488l17 221h-11l-84 -183l-201 -330h-100l-219 330l-81 183h-13l27 -219v-490h-246z" />
<glyph unicode="&#x43d;" horiz-adv-x="1142" d="M122 0v1065h276v-400h348v400h276v-1065h-276v419h-348v-419h-276z" />
<glyph unicode="&#x43e;" horiz-adv-x="1142" d="M71 532q0 271 132 417t370 146q128 0 221.5 -40.5t155.5 -114t92.5 -178t30.5 -230.5q0 -270 -131 -416t-369 -146q-128 0 -221.5 40.5t-156.5 114t-93.5 178t-30.5 229.5zM356 532q0 -70 13 -129.5t38.5 -104t67 -69t98.5 -24.5q108 0 161.5 78.5t53.5 248.5 q0 147 -48.5 237.5t-166.5 90.5q-102 0 -159.5 -76.5t-57.5 -251.5z" />
<glyph unicode="&#x43f;" horiz-adv-x="1132" d="M122 0v1065h890v-1065h-277v820h-337v-820h-276z" />
<glyph unicode="&#x440;" horiz-adv-x="1149" d="M122 -426v1491h201l33 -128h8q55 81 131 119.5t184 38.5q201 0 301 -127t100 -407q0 -137 -32 -246.5t-95 -186.5t-153.5 -117.5t-207.5 -40.5q-66 0 -108.5 10t-85.5 30v-436h-276zM398 256q30 -24 65 -37.5t93 -13.5q120 0 179.5 83.5t59.5 278.5q0 140 -47.5 216.5 t-151.5 76.5q-81 0 -126.5 -40t-71.5 -121v-443z" />
<glyph unicode="&#x441;" horiz-adv-x="921" d="M71 532q0 271 121 417t353 146q117 0 188.5 -19t128.5 -50l-65 -225q-49 24 -97 36.5t-110 12.5q-116 0 -175 -75.5t-59 -242.5q0 -68 15 -125.5t44.5 -100t77.5 -67t112 -24.5q71 0 119.5 18.5t86.5 43.5l65 -211q-64 -47 -155 -71.5t-186 -24.5q-128 0 -216.5 40.5 t-143.5 114t-79.5 178t-24.5 229.5z" />
<glyph unicode="&#x442;" horiz-adv-x="890" d="M2 820v245h886v-245h-300v-820h-285v820h-301z" />
<glyph unicode="&#x443;" horiz-adv-x="1017" d="M-19 1065h332l196 -598l38 -166h14l27 168l162 596h285l-324 -961q-40 -120 -77.5 -218.5t-82.5 -171t-99 -112t-129 -39.5q-110 0 -176 37l51 221q32 -12 64 -12q49 0 94.5 41.5t69.5 149.5z" />
<glyph unicode="&#x444;" horiz-adv-x="1490" d="M59 532q0 273 115.5 413.5t331.5 140.5q60 0 103 -9v414h273v-416q38 7 68 9t58 2q211 0 317 -124.5t106 -408.5q0 -134 -28.5 -241t-84 -184t-135.5 -117.5t-184 -40.5q-18 0 -56 3t-61 12v-411h-273v414q-36 -13 -75.5 -15.5t-71.5 -2.5q-194 0 -298.5 139t-104.5 423z M337 532q0 -166 48 -254.5t150 -88.5q23 0 43 3.5t44 8.5v657q-41 8 -83 9q-98 0 -150 -75.5t-52 -259.5zM869 196q17 -5 39.5 -6t48.5 -1q102 0 149.5 84.5t47.5 279.5q0 167 -46.5 240.5t-162.5 73.5q-20 0 -36.5 -3.5t-39.5 -7.5v-660z" />
<glyph unicode="&#x445;" horiz-adv-x="1118" d="M17 0l345 545l-319 520h329l140 -228l59 -149l63 149l146 228h300l-322 -512l343 -553h-321l-164 256l-65 157l-67 -157l-165 -256h-302z" />
<glyph unicode="&#x446;" horiz-adv-x="1189" d="M122 0v1065h276v-820h330v820h278v-820h155v-487h-202l-32 242h-805z" />
<glyph unicode="&#x447;" horiz-adv-x="1075" d="M71 703v362h276v-242q0 -66 5.5 -114.5t21.5 -79.5t44.5 -45.5t75.5 -14.5q61 0 107.5 14.5t75.5 36.5v445h278v-1065h-278v417q-32 -24 -97.5 -52t-177.5 -28q-79 0 -140 16.5t-104 59.5t-65 113t-22 177z" />
<glyph unicode="&#x448;" horiz-adv-x="1605" d="M122 0v1065h276v-820h267v820h276v-820h266v820h277v-1065h-1362z" />
<glyph unicode="&#x449;" horiz-adv-x="1667" d="M122 0v1065h276v-820h267v820h276v-820h266v820h277v-820h154v-487h-201l-31 242h-1284z" />
<glyph unicode="&#x44a;" horiz-adv-x="1147" d="M-10 820v245h510v-380q51 9 104.5 12.5t96.5 3.5q110 0 187 -24.5t125 -69t69 -105.5t21 -132q0 -193 -115.5 -289t-389.5 -96q-122 0 -211 4.5t-163 10.5v820h-234zM500 232q60 -13 122 -13q102 0 148.5 35.5t46.5 109.5q0 138 -189 138q-75 0 -128 -14v-256z" />
<glyph unicode="&#x44b;" horiz-adv-x="1496" d="M122 0v1065h276v-380q51 9 103 12.5t95 3.5q108 0 181 -24.5t117.5 -69t64 -105.5t19.5 -132q0 -95 -25.5 -167.5t-83.5 -120.5t-149.5 -72.5t-225.5 -24.5q-122 0 -210 4.5t-162 10.5zM398 232q64 -13 122 -13q96 0 134.5 35.5t38.5 109.5q0 69 -38.5 103.5t-128.5 34.5 q-70 0 -128 -14v-256zM1099 0v1065h277v-1065h-277z" />
<glyph unicode="&#x44c;" horiz-adv-x="1043" d="M122 0v1065h276v-380q51 9 103 12.5t95 3.5q110 0 187 -24.5t125.5 -69t69.5 -105.5t21 -132q0 -193 -115 -289t-390 -96q-122 0 -210 4.5t-162 10.5zM398 232q64 -13 122 -13q102 0 147.5 35.5t45.5 109.5q0 138 -187 138q-70 0 -128 -14v-256z" />
<glyph unicode="&#x44d;" horiz-adv-x="977" d="M49 47l69 217q48 -28 115.5 -43.5t134.5 -15.5q136 0 194 57t68 179h-398v198h396q-10 106 -70 163.5t-176 57.5q-81 0 -143 -18.5t-109 -44.5l-75 199q141 98 380 99q238 0 355 -142t117 -421q0 -280 -132 -421t-362 -141q-100 0 -202.5 20t-161.5 57z" />
<glyph unicode="&#x44e;" horiz-adv-x="1563" d="M122 0v1065h276v-400h165q20 207 130 318.5t333 111.5q122 0 209.5 -40.5t144.5 -114t84 -178t27 -230.5q0 -270 -115.5 -416t-353.5 -146q-119 0 -203 32t-138.5 91.5t-83 144.5t-36.5 193h-163v-431h-276zM825 532q0 -156 43.5 -241.5t153.5 -85.5q98 0 140.5 72 t42.5 255q0 165 -40.5 246.5t-148.5 81.5q-98 0 -144.5 -74.5t-46.5 -253.5z" />
<glyph unicode="&#x44f;" horiz-adv-x="1071" d="M21 0l207 335l104 78q-104 17 -172 99t-68 206q0 193 128.5 285t395.5 92q102 0 190 -11t155 -23v-1061h-278v402l-127 -26l-204 -376h-331zM376 699q0 -81 59 -119.5t172 -36.5l76 4v294q-24 11 -51 15t-53 4q-95 0 -149 -40t-54 -121z" />
<glyph unicode="&#x451;" horiz-adv-x="1081" d="M71 532q0 281 134 422t376 141q81 0 157.5 -21.5t136.5 -70t96.5 -132t36.5 -206.5q0 -45 -6 -96t-16 -107h-639q7 -134 69.5 -202.5t203.5 -68.5q87 0 156.5 27t105.5 54l91 -180q-63 -51 -172.5 -86.5t-233.5 -35.5q-258 0 -377 150t-119 412zM181 1345 q0 69 41.5 109.5t109.5 40.5t107.5 -40.5t39.5 -109.5q0 -63 -39.5 -103.5t-107.5 -40.5q-69 0 -110 40.5t-41 103.5zM354 634h396q8 116 -35.5 178t-137.5 62q-108 0 -160.5 -65t-62.5 -175zM647 1345q0 69 39.5 109.5t108.5 40.5q68 0 109 -40.5t41 -109.5 q0 -63 -41.5 -103.5t-108.5 -40.5q-69 0 -108.5 40.5t-39.5 103.5z" />
<glyph unicode="&#x452;" horiz-adv-x="1171" d="M-26 1108v170h158v213h277v-213h343v-170h-343v-277h8q49 69 126 109t192 40q81 0 142.5 -21.5t102 -70.5t61 -133t20.5 -208v-592q0 -193 -77 -295.5t-245 -102.5q-63 0 -136 15v232q9 0 16 -1t15 -1q92 0 121 52t29 146v490q0 130 -35.5 187.5t-130.5 57.5 q-71 0 -131.5 -47t-77.5 -121v-567h-277v1108h-158z" />
<glyph unicode="&#x453;" horiz-adv-x="800" d="M122 0v1065h687v-245h-402v-820h-285zM350 1205l112 329h282v-64l-237 -265h-157z" />
<glyph unicode="&#x454;" horiz-adv-x="972" d="M79 532q0 135 36 239.5t102 176.5t160 109.5t209 37.5t191.5 -19t134.5 -50l-64 -225q-49 24 -103 36.5t-117 12.5q-100 0 -171 -51t-93 -167h418v-187h-420q19 -102 88.5 -166t192.5 -64q73 0 126.5 18.5t92.5 43.5l65 -211q-64 -47 -160 -71.5t-192 -24.5 q-128 0 -221.5 40.5t-154.5 114t-90.5 178t-29.5 229.5z" />
<glyph unicode="&#x455;" horiz-adv-x="898" d="M53 66l77 206q49 -28 130 -54.5t166 -26.5q62 0 99.5 24t37.5 79q0 43 -36.5 68.5t-89.5 47t-117 43.5t-117.5 61t-89.5 100t-36 157q0 158 93.5 241t270.5 83q122 0 219.5 -25.5t152.5 -57.5l-61 -201q-49 19 -124 41t-151 22q-123 0 -123 -96q0 -39 36 -62t89 -43.5 t117 -44t117 -61t89.5 -97t36.5 -153.5q0 -162 -103.5 -254.5t-309.5 -92.5q-113 0 -212 29t-161 67z" />
<glyph unicode="&#x456;" horiz-adv-x="572" d="M111 1366q0 61 45.5 104.5t127.5 43.5q81 0 131 -43.5t50 -104.5q0 -62 -50 -103.5t-131 -41.5q-82 0 -127.5 41.5t-45.5 103.5zM145 0v1065h277v-1065h-277z" />
<glyph unicode="&#x457;" horiz-adv-x="677" d="M45 1368q0 65 32.5 106.5t101.5 41.5t101.5 -41.5t32.5 -106.5q0 -64 -32.5 -105.5t-101.5 -41.5t-101.5 41.5t-32.5 105.5zM198 0v1065h277v-1065h-277zM366 1368q0 65 33.5 106.5t100.5 41.5q69 0 101.5 -41.5t32.5 -106.5q0 -64 -32.5 -105.5t-101.5 -41.5 q-68 0 -101 41.5t-33 105.5z" />
<glyph unicode="&#x458;" horiz-adv-x="569" d="M-34 -196q8 0 15 -1t13 -1q95 0 124 61.5t29 170.5v1031h277v-1110q0 -193 -77 -295.5t-245 -102.5q-64 0 -136 15v232zM109 1366q0 61 45.5 104.5t127.5 43.5q81 0 131 -43.5t50 -104.5q0 -62 -50 -103.5t-131 -41.5q-82 0 -127.5 41.5t-45.5 103.5z" />
<glyph unicode="&#x459;" horiz-adv-x="1622" d="M-36 19l34 231q34 -13 63 -14q43 0 75 36.5t54.5 130t36 254t21.5 408.5h730v-380q51 9 103.5 12.5t93.5 3.5q110 0 187 -24.5t125.5 -69t70 -105.5t21.5 -132q0 -193 -115.5 -289t-390.5 -96q-121 0 -209.5 4.5t-162.5 10.5v820h-211q-13 -151 -30 -300.5t-54.5 -267.5 t-101.5 -191t-166 -73q-123 0 -174 31zM978 230q30 -6 60.5 -8.5t60.5 -2.5q102 0 148 35.5t46 109.5q0 138 -187 138q-75 0 -128 -14v-258z" />
<glyph unicode="&#x45a;" horiz-adv-x="1669" d="M122 0v1065h276v-396h348v396h276v-382q51 9 104.5 12.5t96.5 3.5q110 0 187 -24.5t125 -69t69.5 -104.5t21.5 -131q0 -193 -116.5 -289t-389.5 -96q-122 0 -211 4.5t-163 10.5v424h-348v-424h-276zM1022 232q60 -13 122 -13q102 0 149 35.5t47 109.5q0 136 -190 136 q-75 0 -128 -14v-254z" />
<glyph unicode="&#x45b;" horiz-adv-x="1171" d="M-26 1108v170h158v213h277v-213h343v-170h-343v-277h8q49 69 126 109t192 40q81 0 142.5 -21.5t102 -70.5t61 -133t20.5 -208v-547h-277v490q0 130 -35.5 187.5t-130.5 57.5q-71 0 -131.5 -47t-77.5 -121v-567h-277v1108h-158z" />
<glyph unicode="&#x45c;" horiz-adv-x="1041" d="M122 0v1065h276v-453l66 29l249 424h297l-258 -405l-109 -81l119 -83l288 -496h-317l-260 441h-75v-441h-276zM407 1205l112 329h282v-64l-237 -265h-157z" />
<glyph unicode="&#x45e;" horiz-adv-x="1017" d="M-19 1065h332l196 -598l38 -166h14l27 168l162 596h285l-324 -961q-40 -120 -77.5 -218.5t-82.5 -171t-99 -112t-129 -39.5q-110 0 -176 37l51 221q32 -12 64 -12q49 0 94.5 41.5t69.5 149.5zM160 1445l234 55q14 -84 49.5 -118t90.5 -34q60 0 95 34t49 116l210 -53 q-26 -139 -126 -206.5t-234 -67.5q-65 0 -127 15t-111 48.5t-83.5 84.5t-46.5 126z" />
<glyph unicode="&#x45f;" horiz-adv-x="1132" d="M122 0v1065h276v-820h337v820h277v-1065h-315l-32 -372h-188l-42 372h-313z" />
<glyph unicode="&#x462;" horiz-adv-x="1386" d="M0 1136v244h303v164h291v-164h426v-244h-426v-193q10 2 35 5.5t53.5 6t58.5 4.5t56 2q104 0 202 -20.5t173.5 -74t120 -143t44.5 -229.5q0 -256 -158.5 -385.5t-454.5 -129.5q-30 0 -80 1t-109.5 5.5t-120 10.5t-111.5 19v1121h-303zM594 252q24 -7 63.5 -10.5t81.5 -3.5 q60 0 113 12t93.5 40.5t63 75.5t22.5 116q0 72 -24.5 118t-64 71.5t-92.5 33.5t-111 8q-14 0 -36 -2t-43 -4t-39 -5t-27 -5v-445z" />
<glyph unicode="&#x463;" horiz-adv-x="1147" d="M-10 867v198h234v426h276v-426h341v-198h-341v-182q51 9 104.5 12.5t96.5 3.5q110 0 187 -24.5t125 -69t69 -105.5t21 -132q0 -193 -115.5 -289t-389.5 -96q-122 0 -211 4.5t-163 10.5v867h-234zM500 232q60 -13 122 -13q102 0 148.5 35.5t46.5 109.5q0 138 -189 138 q-75 0 -128 -14v-256z" />
<glyph unicode="&#x472;" horiz-adv-x="1426" d="M81 746q0 372 164 573t468 201q161 0 280 -55t198 -157.5t117 -245t38 -316.5q0 -373 -165 -574.5t-468 -201.5q-162 0 -281 55.5t-196.5 157.5t-116 245t-38.5 318zM388 632q17 -202 104 -302t221 -100q62 0 118.5 20t100.5 66t72.5 123t34.5 193h-651zM388 867h651 q-17 190 -102 291.5t-224 101.5q-61 0 -116.5 -21t-99.5 -68t-72.5 -122.5t-36.5 -181.5z" />
<glyph unicode="&#x473;" horiz-adv-x="1142" d="M71 532q0 271 132 417t370 146q128 0 221.5 -40.5t155.5 -114t92.5 -178t30.5 -230.5q0 -270 -131 -416t-369 -146q-128 0 -221.5 40.5t-156.5 114t-93.5 178t-30.5 229.5zM356 441q12 -115 72 -175.5t145 -60.5q81 0 141.5 52t73.5 184h-432zM356 616h432 q-16 128 -71 186t-144 58q-41 0 -77 -12.5t-65 -41t-49 -76t-26 -114.5z" />
<glyph unicode="&#x474;" horiz-adv-x="1339" d="M-28 1491h339l298 -875l39 -254h8l35 256l146 488q35 115 70.5 192.5t81.5 124.5t103.5 67t134.5 20q81 0 132 -13t96 -36l-65 -247q-36 18 -66.5 25t-65.5 7q-48 0 -80 -37.5t-60 -122.5l-379 -1096h-209z" />
<glyph unicode="&#x475;" horiz-adv-x="1122" d="M-15 1065h322l197 -559l37 -163h8l32 169l49 150q37 116 70 196.5t72 130.5t89.5 72.5t120.5 22.5q51 0 97.5 -9.5t76.5 -26.5l-38 -225q-38 18 -72 18q-36 0 -69.5 -29.5t-67.5 -110.5l-293 -711h-169z" />
<glyph unicode="&#x48a;" horiz-adv-x="1516" d="M128 0v1491h291v-812l-21 -200h13l105 206l555 806h218v-1246h249v-66l-205 -456h-199l95 277h-233v827l18 193h-10l-101 -200l-556 -820h-219zM290 1819l263 43q9 -69 51 -98.5t107 -29.5q143 0 158 126l237 -37q-24 -134 -123 -196t-274 -62q-87 0 -159.5 13t-127 41.5 t-89.5 77.5t-43 122z" />
<glyph unicode="&#x48b;" horiz-adv-x="1256" d="M122 0v1065h276v-507l-12 -145h8l88 152l382 500h175v-820h229v-66l-205 -421h-201l97 242h-197v486l11 150h-7l-91 -154l-379 -482h-174zM232 1445l235 55q15 -84 49.5 -118t90.5 -34q60 0 95 34t48 116l211 -53q-26 -139 -126 -206.5t-234 -67.5q-65 0 -127.5 15 t-111.5 48.5t-83 84.5t-47 126z" />
<glyph unicode="&#x48c;" horiz-adv-x="1386" d="M0 1136v244h303v164h291v-164h426v-244h-426v-193q10 2 35 5.5t53.5 6t58.5 4.5t56 2q104 0 202 -20.5t173.5 -74t120 -143t44.5 -229.5q0 -256 -158.5 -385.5t-454.5 -129.5q-30 0 -80 1t-109.5 5.5t-120 10.5t-111.5 19v1121h-303zM594 252q24 -7 63.5 -10.5t81.5 -3.5 q60 0 113 12t93.5 40.5t63 75.5t22.5 116q0 72 -24.5 118t-64 71.5t-92.5 33.5t-111 8q-14 0 -36 -2t-43 -4t-39 -5t-27 -5v-445z" />
<glyph unicode="&#x48d;" horiz-adv-x="1147" d="M-10 867v198h234v426h276v-426h341v-198h-341v-182q51 9 104.5 12.5t96.5 3.5q110 0 187 -24.5t125 -69t69 -105.5t21 -132q0 -193 -115.5 -289t-389.5 -96q-122 0 -211 4.5t-163 10.5v867h-234zM500 232q60 -13 122 -13q102 0 148.5 35.5t46.5 109.5q0 138 -189 138 q-75 0 -128 -14v-256z" />
<glyph unicode="&#x48e;" horiz-adv-x="1217" d="M128 0v1476q89 16 197 26t214 10q110 0 222.5 -18t201.5 -72t145.5 -151.5t56.5 -252.5q0 -146 -53 -246.5t-143 -162.5l137 -194l-169 -123l-164 232q-90 -19 -185 -20h-34.5t-49 1t-49.5 4t-36 5v-514h-291zM419 766q8 -2 25.5 -4t36.5 -3t37.5 -1h26.5q30 0 57.5 2 t55.5 9l-123 176l111 73l134 -195q36 30 57 77t21 122q0 71 -25.5 117t-67 73.5t-94.5 37.5t-108 10q-43 0 -81.5 -3t-62.5 -7v-484z" />
<glyph unicode="&#x48f;" horiz-adv-x="1149" d="M122 -426v1491h201l33 -128h8q55 81 131 119.5t184 38.5q201 0 301 -127t100 -407q0 -303 -149 -459l100 -119l-155 -130l-118 143q-38 -11 -80 -18.5t-86 -7.5q-66 0 -108.5 10t-85.5 30v-436h-276zM398 256q30 -24 65 -37.5t93 -13.5q21 0 41.5 2t36.5 8l-99 122l91 74 l102 -128q32 45 49.5 114.5t17.5 169.5q0 140 -47 216.5t-152 76.5q-81 0 -126.5 -40t-71.5 -121v-443z" />
<glyph unicode="&#x490;" horiz-adv-x="974" d="M128 0v1491h634l45 324h187v-324h2l-2 -260h-575v-1231h-291z" />
<glyph unicode="&#x491;" horiz-adv-x="800" d="M122 0v1065h457l45 323h185v-568h-402v-820h-285z" />
<glyph unicode="&#x492;" horiz-adv-x="1081" d="M0 626v199h205v666h866v-260h-575v-406h477v-199h-477v-626h-291v626h-205z" />
<glyph unicode="&#x493;" horiz-adv-x="880" d="M0 413v170h177v482h687v-245h-402v-237h345v-170h-345v-413h-285v413h-177z" />
<glyph unicode="&#x494;" horiz-adv-x="1238" d="M128 0v1491h866v-260h-575v-432q34 12 105.5 29.5t174.5 17.5q89 0 172.5 -24.5t148 -85.5t104 -166.5t39.5 -266.5q0 -275 -121.5 -424t-391.5 -149q-57 0 -86 2t-46 6v252q14 -5 49.5 -6t68.5 -1q109 0 164.5 74.5t55.5 232.5q0 88 -19.5 145t-53 90t-80.5 47t-100 14 q-51 0 -104.5 -12.5t-79.5 -26.5v-547h-291z" />
<glyph unicode="&#x495;" horiz-adv-x="1136" d="M122 0v1065h677v-245h-401v-269q35 13 99 29t165 16q82 0 155 -23.5t129 -80.5t87.5 -155.5t31.5 -247.5q0 -134 -24.5 -236.5t-82 -170.5t-150 -101.5t-227.5 -33.5q-59 0 -88 3t-46 7v238q17 -2 52.5 -3t69.5 -1q209 0 209 282q0 151 -56.5 215t-152.5 64 q-49 0 -97 -13t-74 -26v-313h-276z" />
<glyph unicode="&#x496;" horiz-adv-x="1825" d="M-15 0l389 654l116 83l-110 78l-365 676h339l308 -637h84v637h276v-662l75 29l309 633h328l-348 -654l-100 -73l122 -89l240 -415h167v-526h-205l-31 266h-130l-343 648h-84v-648h-276v673l-77 -30l-343 -643h-341z" />
<glyph unicode="&#x497;" horiz-adv-x="1547" d="M-12 0l278 488l73 63l-109 81l-220 433h297l197 -433h92v433h264v-453l81 29l201 424h293l-232 -433l-83 -67l109 -86l126 -234h179v-487h-203l-32 242h-130l-217 441h-92v-441h-264v462l-80 -29l-218 -433h-310z" />
<glyph unicode="&#x498;" horiz-adv-x="1120" d="M38 49l75 254q49 -24 140.5 -48.5t217.5 -24.5q47 0 95 12t86.5 38.5t61.5 69t23 101.5q0 100 -74.5 151.5t-266.5 55.5q-26 2 -38.5 2h-44.5h-57v228h51h47t56.5 1t56 4t45.5 8q75 16 128 60.5t53 118.5q0 101 -65 138.5t-172 37.5q-96 0 -179.5 -25.5t-125.5 -48.5 l-74 247q24 12 67 27.5t100 29.5t123 22t133 8q94 0 183.5 -17t160 -59.5t113 -114t42.5 -181.5t-58.5 -204t-188.5 -137v-11q138 -28 216 -119.5t78 -244.5q0 -104 -37.5 -182t-99 -133.5t-144 -88t-173.5 -45.5l-29 -351h-189l-39 348q-96 10 -173 30t-124 43z" />
<glyph unicode="&#x499;" horiz-adv-x="919" d="M47 57l59 215q49 -28 119.5 -45.5t156.5 -17.5q191 0 191 123q0 55 -50 82t-186 27h-105v193h130q75 0 122.5 31.5t47.5 80.5q0 57 -41.5 80.5t-128.5 23.5q-83 0 -148 -22.5t-104 -45.5l-59 212q63 37 169 63.5t225 26.5q183 0 273.5 -68.5t90.5 -198.5q0 -36 -9.5 -73 t-30.5 -71t-52.5 -60.5t-73.5 -41.5v-8q113 -26 160 -91t47 -174q0 -108 -72.5 -192.5t-226.5 -113.5l-29 -364h-187l-41 355q-81 9 -141.5 29t-105.5 45z" />
<glyph unicode="&#x49a;" horiz-adv-x="1352" d="M128 0v1491h291v-660l69 29l411 631h332l-434 -627l-116 -80l120 -83l311 -441h225v-526h-203l-33 266h-164l-441 636h-77v-636h-291z" />
<glyph unicode="&#x49b;" horiz-adv-x="1122" d="M122 0v1065h276v-453l66 29l249 424h297l-258 -405l-109 -81l119 -83l145 -251h199v-487h-203l-31 242h-139l-260 441h-75v-441h-276z" />
<glyph unicode="&#x49c;" horiz-adv-x="1524" d="M128 0v1491h291v-660l116 8v283h198v-266l47 4l344 631h315l-364 -627l-114 -80l119 -83l422 -701h-339l-375 636h-55v-270h-198v270h-116v-636h-291z" />
<glyph unicode="&#x49d;" horiz-adv-x="1250" d="M122 0v1065h276v-453l90 8v256h162v-240l47 5l195 424h290l-204 -405l-114 -81l120 -83l234 -496h-306l-207 441h-55v-252h-162v252h-90v-441h-276z" />
<glyph unicode="&#x49e;" horiz-adv-x="1473" d="M0 1148v222h281v121h292v-121h198v-199h-198v-340l115 29l377 631h319l-400 -627l-136 -80l130 -83l473 -701h-360l-418 636h-100v-636h-292v1148h-281z" />
<glyph unicode="&#x49f;" horiz-adv-x="1069" d="M-30 1163v170h175v158h277v-158h326v-170h-326v-551l64 29l242 424h305l-255 -405l-109 -81l117 -83l287 -496h-317l-260 441h-74v-441h-277v1163h-175z" />
<glyph unicode="&#x4a0;" horiz-adv-x="1530" d="M0 1231v260h630v-660l69 29l411 631h331l-433 -627l-116 -80l120 -83l496 -701h-360l-441 636h-77v-636h-291v1195v36h-339z" />
<glyph unicode="&#x4a1;" horiz-adv-x="1149" d="M-10 820v245h510v-453l69 29l246 424h299l-258 -405l-110 -81l121 -83l285 -496h-317l-258 441h-77v-441h-276v820h-234z" />
<glyph unicode="&#x4a2;" horiz-adv-x="1482" d="M128 0v1491h291v-607h546v607h291v-1231h189v-526h-205l-33 266h-242v624h-546v-624h-291z" />
<glyph unicode="&#x4a3;" d="M122 0v1065h276v-400h348v400h276v-820h167v-487h-203l-31 242h-209v419h-348v-419h-276z" />
<glyph unicode="&#x4a4;" horiz-adv-x="1811" d="M128 0v1491h291v-607h546v607h866v-260h-575v-1231h-291v624h-546v-624h-291z" />
<glyph unicode="&#x4a5;" horiz-adv-x="1413" d="M122 0v1065h276v-400h348v400h677v-245h-401v-820h-276v419h-348v-419h-276z" />
<glyph unicode="&#x4a6;" horiz-adv-x="2048" d="M128 0v1491h1105v-692q35 12 106 29.5t173 17.5q90 0 173 -24.5t148 -85.5t104.5 -166.5t39.5 -266.5q0 -275 -121.5 -424t-392.5 -149q-57 0 -86 2t-46 6v252q15 -5 50 -6t70 -1q108 0 163.5 74.5t55.5 232.5q0 88 -19 145t-53.5 90t-81 47t-102.5 14q-48 0 -102 -12.5 t-79 -26.5v-61v-486h-292v1231h-522v-1231h-291z" />
<glyph unicode="&#x4a7;" horiz-adv-x="1750" d="M122 0v1065h890v-514q34 13 97.5 29t166.5 16q77 0 149.5 -23.5t128.5 -80.5t90.5 -155.5t34.5 -247.5q0 -134 -25.5 -236.5t-82.5 -170.5t-149.5 -101.5t-226.5 -33.5q-59 0 -88.5 3t-45.5 7v238q16 -2 51.5 -3t69.5 -1q210 0 208 282q0 151 -56 215t-152 64 q-48 0 -97.5 -13t-74.5 -26l2 -313h-277v820h-337v-820h-276z" />
<glyph unicode="&#x4a8;" horiz-adv-x="1865" d="M81 746q0 372 171.5 573t503.5 201v-260q-170 0 -269 -123t-99 -375q0 -123 37 -222t96.5 -167t135.5 -105.5t152 -37.5q24 0 50.5 2t43.5 10q-49 33 -93 85.5t-75.5 122.5t-49.5 154t-18 178q0 162 39.5 285.5t110.5 208.5t171.5 129t223.5 44q134 0 233 -46t163 -127 t95 -190.5t31 -237.5q0 -120 -27.5 -221t-71.5 -180t-97.5 -133t-102.5 -80q11 -2 25 -3t27 -1q64 0 121.5 18t97.5 46l89 -228q-47 -47 -120 -71.5t-188 -24.5q-42 0 -87 6.5t-88.5 19t-81 32t-65.5 45.5q-71 -49 -157 -76t-201 -27q-173 0 -307 53.5t-227.5 153.5 t-142.5 244t-49 325zM973 790q0 -63 14.5 -130.5t43 -129t69 -114t95.5 -90.5q49 34 91.5 86t73 117t49 143t18.5 163q0 73 -10.5 137.5t-36 113t-67 76t-103.5 27.5q-109 0 -173 -98t-64 -301z" />
<glyph unicode="&#x4a9;" horiz-adv-x="1510" d="M69 532q0 124 27.5 224t89.5 174t158.5 116.5t234.5 48.5v-235q-119 -8 -172 -83.5t-53 -235.5q0 -77 21 -138.5t57.5 -106t87.5 -68t110 -23.5q17 0 43 4t40 15q-57 42 -99.5 133.5t-42.5 213.5q0 83 21.5 170.5t71 158.5t133 118t205.5 47q117 0 196.5 -36.5 t127.5 -96.5t69 -140.5t21 -169.5q0 -73 -19 -139t-48.5 -121t-68 -96.5t-77.5 -64.5q47 -19 107 -7.5t100 48.5l64 -189q-43 -38 -103.5 -60.5t-154.5 -22.5q-88 0 -154 24.5t-110 64.5q-69 -49 -155 -69t-179 -20q-132 0 -234.5 40.5t-173 114t-106 178t-35.5 229.5z M839 571q0 -96 37.5 -173t101.5 -128q68 45 110 133.5t42 203.5q0 96 -34.5 160t-103.5 64q-47 0 -76.5 -21.5t-46.5 -56.5t-23.5 -82t-6.5 -100z" />
<glyph unicode="&#x4aa;" horiz-adv-x="1189" d="M81 746q0 219 61 366.5t157.5 238t215.5 130t239 39.5q128 0 216.5 -16.5t145.5 -40.5l-57 -247q-49 24 -116 34t-163 10q-177 0 -284.5 -125t-107.5 -389q0 -116 25.5 -210.5t77.5 -161.5t130 -104.5t180 -37.5q95 0 161.5 19t114.5 50l61 -240q-51 -36 -125 -56 t-155 -29l-29 -348h-188l-40 357q-108 19 -203 72t-165.5 146t-111 227.5t-40.5 315.5z" />
<glyph unicode="&#x4ab;" horiz-adv-x="921" d="M71 532q0 271 121 417t353 146q117 0 188.5 -19t128.5 -50l-65 -225q-49 24 -97 36.5t-110 12.5q-116 0 -175 -75.5t-59 -242.5q0 -68 15 -125.5t44.5 -100t77.5 -67t112 -24.5q71 0 119.5 18.5t86.5 43.5l65 -211q-81 -58 -201 -81l-29 -357h-188l-41 353 q-96 17 -162 64t-107.5 118t-59 165t-17.5 204z" />
<glyph unicode="&#x4ac;" horiz-adv-x="1209" d="M24 1231v260h1163v-260h-435v-971h185v-526h-204l-32 266h-241v1231h-436z" />
<glyph unicode="&#x4ad;" horiz-adv-x="890" d="M2 820v245h886v-245h-300v-575h178v-487h-201l-33 242h-229v820h-301z" />
<glyph unicode="&#x4ae;" horiz-adv-x="1260" d="M-4 1491h347l273 -560l30 -158h10l32 162l264 556h314l-488 -935v-556h-292v553z" />
<glyph unicode="&#x4af;" horiz-adv-x="1045" d="M-15 1065h322l197 -632l39 -199h8l30 203l181 628h299l-386 -1067v-424h-277v424z" />
<glyph unicode="&#x4b0;" horiz-adv-x="1260" d="M-4 1491h347l273 -560l30 -158h10l32 162l264 556h314l-453 -865h295v-193h-330v-433h-292v433h-330v193h291z" />
<glyph unicode="&#x4b1;" horiz-adv-x="1045" d="M-15 1065h322l197 -632l39 -199h8l30 203l181 628h299l-386 -1065h256v-171h-256v-255h-277v255h-256v171h254z" />
<glyph unicode="&#x4b2;" horiz-adv-x="1420" d="M21 0l458 758l-416 733h352l231 -430l51 -152l49 152l240 430h317l-429 -718l297 -513h235v-526h-205l-32 266h-191l-262 460l-58 158l-55 -158l-264 -460h-318z" />
<glyph unicode="&#x4b3;" horiz-adv-x="1154" d="M17 0l345 545l-319 520h329l140 -228l59 -149l63 149l146 228h300l-322 -512l192 -308h190v-487h-203l-32 242h-125l-164 256l-65 157l-67 -157l-165 -256h-302z" />
<glyph unicode="&#x4b4;" horiz-adv-x="1784" d="M24 1231v260h1028v-260h-302v-971h513v1231h292v-1231h191v-526h-206l-32 266h-1050v1231h-434z" />
<glyph unicode="&#x4b5;" horiz-adv-x="1378" d="M2 820v245h801v-245h-224v-575h333v820h277v-820h155v-487h-202l-32 242h-807v820h-301z" />
<glyph unicode="&#x4b6;" horiz-adv-x="1386" d="M98 927v564h292v-473q0 -128 50 -191t165 -63q81 0 152.5 18.5t114.5 54.5v654h291v-1231h185v-526h-204l-32 266h-240v601q-56 -32 -149 -58.5t-221 -26.5q-89 0 -162.5 22.5t-127.5 72t-84 127t-30 189.5z" />
<glyph unicode="&#x4b7;" horiz-adv-x="1162" d="M71 703v362h276v-242q0 -66 5.5 -114.5t21.5 -79.5t44.5 -45.5t75.5 -14.5q61 0 107.5 14.5t75.5 36.5v445h278v-820h179v-487h-203l-32 242h-222v417q-32 -24 -97.5 -52t-177.5 -28q-79 0 -140 16.5t-104 59.5t-65 113t-22 177z" />
<glyph unicode="&#x4b8;" horiz-adv-x="1372" d="M98 927v564h292v-473q0 -122 43.5 -183.5t145.5 -70.5v252h199v-238q53 10 98.5 23.5t75.5 35.5v654h292v-1491h-292v601q-58 -34 -174 -60v-281h-199v258q-16 -2 -31.5 -2h-31.5q-94 0 -171 22.5t-132 72t-85 127t-30 189.5z" />
<glyph unicode="&#x4b9;" horiz-adv-x="1140" d="M69 703v362h276v-242q0 -120 25.5 -181t104.5 -71v252h161v-242q73 13 110 39v445h276v-1065h-276v417q-33 -24 -110 -47v-244h-161v213q-18 -2 -37 -2h-38q-79 0 -140.5 16.5t-104 59.5t-64.5 113t-22 177z" />
<glyph unicode="&#x4ba;" horiz-adv-x="1290" d="M128 0v1491h291v-601q55 32 148 59t221 27q90 0 163 -22.5t128 -72.5t84.5 -128t29.5 -188v-565h-292v473q0 128 -50 190.5t-166 62.5q-81 0 -152 -17.5t-114 -54.5v-654h-291z" />
<glyph unicode="&#x4bb;" horiz-adv-x="1160" d="M122 0v1491h276v-546h9q51 69 125.5 109.5t189.5 40.5q81 0 143 -21.5t103.5 -70t61.5 -133t20 -208.5v-662h-277v605q0 130 -36 187.5t-132 57.5q-70 0 -129 -48t-78 -123v-679h-276z" />
<glyph unicode="&#x4bc;" horiz-adv-x="1691" d="M0 947q4 104 51 163h245q-26 -30 -35 -66t-7 -66q0 -17 6 -38.5t25.5 -38.5t55 -28t98.5 -4q8 147 52 267t118 205.5t183 132t249 46.5q285 0 427 -162.5t142 -473.5q0 -59 -5 -123t-16 -137h-859q6 -85 33 -157.5t76 -126t122.5 -82t174.5 -28.5q95 0 174.5 28.5 t150.5 76.5l75 -248q-96 -55 -209 -86t-245 -31q-293 0 -459.5 166.5t-183.5 487.5h-69q-106 2 -176 28.5t-114 71.5t-62 103.5t-18 119.5zM730 869h595q6 41 6 83q0 65 -16 124.5t-51 104t-88.5 71t-125.5 26.5q-156 0 -234.5 -105.5t-85.5 -303.5z" />
<glyph unicode="&#x4bd;" horiz-adv-x="1378" d="M12 733v15q3 57 18 91.5t45 69.5h232q-30 -26 -47.5 -61t-17.5 -86q0 -42 27 -72t105 -30q31 218 161 326.5t343 108.5q81 0 157.5 -21.5t136 -70t95.5 -132t36 -206.5q0 -45 -5 -96t-16 -107h-636q6 -134 67.5 -202.5t202.5 -68.5q88 0 157 27t105 54l92 -180 q-64 -51 -174 -86.5t-234 -35.5q-234 0 -354 126t-140 347h-14q-165 0 -253.5 74.5t-88.5 215.5zM654 634h392q0 9 1 17.5t1 17.5q0 97 -43.5 151t-130.5 54q-109 0 -159 -65t-61 -175z" />
<glyph unicode="&#x4be;" horiz-adv-x="1691" d="M0 947q4 104 51 163h245q-26 -30 -35 -66t-7 -66q0 -17 6 -38.5t25.5 -38.5t55 -28t98.5 -4q8 147 52 267t118 205.5t183 132t249 46.5q285 0 427 -162.5t142 -473.5q0 -59 -5 -123t-16 -137h-859q6 -85 33 -157.5t76 -126t122.5 -82t174.5 -28.5q95 0 174.5 28.5 t150.5 76.5l75 -248q-79 -44 -166.5 -71.5t-187.5 -39.5l-30 -348h-187l-40 357q-222 41 -348 201.5t-138 437.5h-69q-106 2 -176 28.5t-114 71.5t-62 103.5t-18 119.5zM730 869h595q6 41 6 83q0 65 -16 124.5t-51 104t-88.5 71t-125.5 26.5q-156 0 -234.5 -105.5 t-85.5 -303.5z" />
<glyph unicode="&#x4bf;" horiz-adv-x="1378" d="M12 733v15q3 57 18 91.5t45 69.5h232q-30 -26 -47.5 -61t-17.5 -86q0 -42 27 -72t105 -30q31 218 161 326.5t343 108.5q81 0 157.5 -21.5t136 -70t95.5 -132t36 -206.5q0 -45 -5 -96t-16 -107h-636q6 -134 67.5 -202.5t202.5 -68.5q88 0 157 27t105 54l92 -180 q-49 -39 -121 -67.5t-159 -43.5l-29 -353h-188l-40 355q-170 33 -258.5 152t-106.5 308h-14q-165 0 -253.5 74.5t-88.5 215.5zM654 634h392q0 9 1 17.5t1 17.5q0 97 -43.5 151t-130.5 54q-109 0 -159 -65t-61 -175z" />
<glyph unicode="&#x4c0;" horiz-adv-x="606" d="M158 0v1491h291v-1491h-291z" />
<glyph unicode="&#x4c3;" horiz-adv-x="1301" d="M128 0v1491h291v-660l69 29l411 631h332l-420 -597l-130 -85h111q102 -26 175.5 -72t121 -119t69.5 -176t22 -241v-59q0 -298 -120.5 -440.5t-324.5 -142.5q-61 0 -128 13v237h32q134 0 199 83t65 270q0 104 -21.5 192.5t-70.5 150.5t-126.5 96.5t-188.5 34.5h-77v-636 h-291z" />
<glyph unicode="&#x4c4;" horiz-adv-x="1067" d="M122 0v1065h276v-462l66 29l249 433h297l-260 -419l-98 -69l87 -4q84 -24 133.5 -73t77.5 -114t37 -140t9 -150v-37q0 -262 -98.5 -383t-279.5 -121q-32 0 -67 3t-72 11v235q13 -2 26 -3.5t23 -1.5q192 0 192 258q0 185 -59.5 273.5t-187.5 100.5h-75v-431h-276z" />
<glyph unicode="&#x4c5;" horiz-adv-x="1386" d="M-28 15l32 251q13 -4 26 -6t25 -2q34 0 67.5 17t56.5 57q32 47 55.5 138t41.5 231t28.5 335t14.5 455h880v-1246h209v-66l-205 -456h-199l95 277h-192v1231h-317q-9 -202 -19 -368t-28.5 -299t-48.5 -235.5t-77 -177.5q-30 -49 -67 -81t-77.5 -51t-80 -26.5t-72.5 -7.5 q-49 0 -82.5 7.5t-65.5 22.5z" />
<glyph unicode="&#x4c6;" horiz-adv-x="1171" d="M-36 19l34 231q34 -13 63 -14q43 0 75 36.5t54.5 130t36 254t21.5 408.5h730v-820h202v-66l-204 -421h-201l97 242h-171v820h-211q-13 -151 -30 -300.5t-54.5 -267.5t-101.5 -191t-166 -73q-123 0 -174 31z" />
<glyph unicode="&#x4c7;" horiz-adv-x="1386" d="M128 0v1491h291v-607h546v607h291v-1536q0 -193 -76.5 -295.5t-242.5 -102.5q-30 0 -65 3t-71 12v232q8 0 16 -1t16 -1q45 0 71.5 12.5t40.5 38t17 63t3 84.5v624h-546v-624h-291z" />
<glyph unicode="&#x4c8;" horiz-adv-x="1142" d="M122 0v1065h276v-400h348v400h276v-1110q0 -193 -76.5 -295.5t-244.5 -102.5q-63 0 -136 15v232q8 0 15.5 -1t15.5 -1q91 0 120.5 52t29.5 146v419h-348v-419h-276z" />
<glyph unicode="&#x4c9;" horiz-adv-x="1453" d="M128 0v1491h291v-607h546v607h291v-1246h220v-66l-204 -456h-201l96 277h-202v624h-546v-624h-291z" />
<glyph unicode="&#x4ca;" horiz-adv-x="1226" d="M122 0v1065h276v-400h348v400h276v-820h216v-66l-205 -421h-200l96 242h-183v419h-348v-419h-276z" />
<glyph unicode="&#x4cb;" horiz-adv-x="1290" d="M98 927v564h292v-473q0 -128 50 -191t165 -63q81 0 152.5 18.5t114.5 54.5v654h291v-1491h-238l-33 -266h-204v526h184v341q-56 -32 -149 -58.5t-221 -26.5q-89 0 -162.5 22.5t-127.5 72t-84 127t-30 189.5z" />
<glyph unicode="&#x4cc;" horiz-adv-x="1075" d="M71 726v339h276v-219q0 -60 5.5 -104.5t21.5 -76t44.5 -46t75.5 -14.5q61 0 107.5 14.5t75.5 36.5v409h278v-1065h-256l-32 -242h-203v451h213v232q-32 -24 -97.5 -47.5t-177.5 -23.5q-158 0 -244.5 82.5t-86.5 273.5z" />
<glyph unicode="&#x4cd;" horiz-adv-x="1801" d="M128 0v1491h266l398 -682l70 -170h10l63 174l377 678h265v-1246h246v-66l-205 -456h-199l95 277h-230v773l33 296h-14l-91 -238l-318 -556h-93l-334 558l-95 236h-10l43 -294v-775h-277z" />
<glyph unicode="&#x4ce;" horiz-adv-x="1512" d="M122 0v1065h287l245 -400l59 -135h9l62 139l226 396h289v-820h224v-66l-204 -421h-201l96 242h-181v488l17 221h-11l-84 -183l-201 -330h-100l-219 330l-81 183h-13l27 -219v-490h-246z" />
<glyph unicode="&#x4cf;" horiz-adv-x="557" d="M140 0v1491h277v-1491h-277z" />
<glyph unicode="&#x4d0;" horiz-adv-x="1288" d="M0 0l537 1502h215l537 -1502h-307l-120 330h-457l-113 -330h-292zM224 1819l264 43q8 -69 50 -98.5t107 -29.5q143 0 158 126l236 -37q-24 -134 -122.5 -196t-273.5 -62q-87 0 -159.5 13t-126.5 41.5t-89.5 77.5t-43.5 122zM479 565h320l-111 331l-45 234h-11l-44 -236z " />
<glyph unicode="&#x4d1;" horiz-adv-x="1055" d="M49 294q0 98 43.5 165t126 108.5t196 57.5t254.5 9q14 120 -17.5 172t-142.5 52q-84 0 -176.5 -16.5t-151.5 -44.5l-66 207q86 38 203 60t245 22q110 0 185 -26.5t118 -75.5t61 -117t18 -154q0 -93 -6 -187.5t-7 -186t5 -178t32 -163.5h-225l-45 147h-11 q-42 -66 -118 -114t-196 -48q-74 0 -133.5 22.5t-102 63.5t-66 98t-23.5 127zM164 1445l234 55q14 -84 49.5 -118t90.5 -34q60 0 95 34t49 116l210 -53q-26 -139 -126 -206.5t-234 -67.5q-65 0 -127 15t-111 48.5t-83.5 84.5t-46.5 126zM335 337q0 -59 35.5 -92.5 t96.5 -33.5q83 0 132 37t72 80v139q-66 6 -126.5 1.5t-107.5 -19t-74.5 -42t-27.5 -70.5z" />
<glyph unicode="&#x4d2;" horiz-adv-x="1288" d="M0 0l537 1502h215l537 -1502h-307l-120 330h-457l-113 -330h-292zM254 1699q0 55 38.5 89.5t123.5 34.5q83 0 121 -33.5t38 -90.5q0 -55 -38.5 -87.5t-120.5 -32.5q-85 0 -123.5 32.5t-38.5 87.5zM479 565h320l-111 331l-45 234h-11l-44 -236zM709 1699q0 55 38.5 89.5 t122.5 34.5q85 0 123 -33.5t38 -90.5q0 -55 -38 -87.5t-123 -32.5q-84 0 -122.5 32.5t-38.5 87.5z" />
<glyph unicode="&#x4d3;" horiz-adv-x="1055" d="M49 294q0 98 43.5 165t126 108.5t196 57.5t254.5 9q14 120 -17.5 172t-142.5 52q-84 0 -176.5 -16.5t-151.5 -44.5l-66 207q86 38 203 60t245 22q110 0 185 -26.5t118 -75.5t61 -117t18 -154q0 -93 -6 -187.5t-7 -186t5 -178t32 -163.5h-225l-45 147h-11 q-42 -66 -118 -114t-196 -48q-74 0 -133.5 22.5t-102 63.5t-66 98t-23.5 127zM143 1345q0 69 41.5 109.5t109.5 40.5t107.5 -40.5t39.5 -109.5q0 -63 -39.5 -103.5t-107.5 -40.5q-69 0 -110 40.5t-41 103.5zM335 337q0 -59 35.5 -92.5t96.5 -33.5q83 0 132 37t72 80v139 q-66 6 -126.5 1.5t-107.5 -19t-74.5 -42t-27.5 -70.5zM609 1345q0 69 39.5 109.5t108.5 40.5q68 0 109 -40.5t41 -109.5q0 -63 -41.5 -103.5t-108.5 -40.5q-69 0 -108.5 40.5t-39.5 103.5z" />
<glyph unicode="&#x4d4;" horiz-adv-x="1835" d="M-61 0l902 1491h893v-260h-590v-347h537v-260h-537v-364h600v-260h-892v362h-396l-211 -362h-306zM583 598h269v536h-13l-77 -220z" />
<glyph unicode="&#x4d5;" horiz-adv-x="1671" d="M49 294q0 98 43.5 165t124.5 108.5t195 57.5t255 9q14 120 -16.5 172t-141.5 52q-84 0 -169.5 -22.5t-152.5 -53.5l-72 200q82 42 201 73t247 31q110 0 176 -28.5t109 -86.5q53 60 138 92t185 32q81 0 158 -21.5t136.5 -70t95.5 -132t36 -206.5q0 -45 -5 -95t-15 -108 h-642q8 -134 71 -202.5t204 -68.5q87 0 156 27t106 54l91 -180q-63 -51 -173 -86.5t-234 -35.5q-136 0 -239.5 50.5t-160.5 141.5h-10q-58 -73 -142 -126t-230 -53q-74 0 -133.5 22.5t-102 63.5t-66 98t-23.5 127zM335 337q0 -59 35.5 -92.5t96.5 -33.5q83 0 132 37t72 80 v139q-66 6 -126.5 1.5t-107.5 -19t-74.5 -42t-27.5 -70.5zM943 634h399q6 116 -36.5 178t-138.5 62q-108 0 -160 -65t-64 -175z" />
<glyph unicode="&#x4d6;" horiz-adv-x="1111" d="M128 0v1491h884v-260h-593v-347h540v-260h-540v-364h603v-260h-894zM158 1819l264 43q8 -69 50 -98.5t107 -29.5q143 0 158 126l236 -37q-24 -134 -122.5 -196t-273.5 -62q-87 0 -159.5 13t-126.5 41.5t-89.5 77.5t-43.5 122z" />
<glyph unicode="&#x4d7;" horiz-adv-x="1081" d="M71 532q0 281 134 422t376 141q81 0 157.5 -21.5t136.5 -70t96.5 -132t36.5 -206.5q0 -45 -6 -96t-16 -107h-639q7 -134 69.5 -202.5t203.5 -68.5q87 0 156.5 27t105.5 54l91 -180q-63 -51 -172.5 -86.5t-233.5 -35.5q-258 0 -377 150t-119 412zM189 1445l234 55 q14 -84 49.5 -118t90.5 -34q60 0 95 34t49 116l210 -53q-26 -139 -126 -206.5t-234 -67.5q-65 0 -127 15t-111 48.5t-83.5 84.5t-46.5 126zM354 634h396q8 116 -35.5 178t-137.5 62q-108 0 -160.5 -65t-62.5 -175z" />
<glyph unicode="&#x4d8;" horiz-adv-x="1341" d="M79 618q0 59 5 122t16 132h869q-12 185 -104 286.5t-284 101.5q-110 0 -195 -32.5t-134 -62.5l-63 249q33 19 80.5 38.5t106.5 34.5t124 24t130 9q147 0 264.5 -43.5t199 -138t124 -241.5t42.5 -351q0 -181 -34.5 -325t-110.5 -244t-192 -153.5t-277 -53.5 q-145 0 -252 46.5t-177 132t-104 205t-34 264.5zM386 549q0 -65 15.5 -126t49 -108t84.5 -75.5t123 -28.5q149 0 229 106.5t80 312.5h-575q-6 -42 -6 -81z" />
<glyph unicode="&#x4d9;" horiz-adv-x="1081" d="M73 428q0 90 21 194h645q-10 132 -73 192t-204 60q-88 0 -155 -31.5t-102 -56.5l-99 187q64 51 174 86.5t234 35.5q128 0 221.5 -40.5t154 -114t90.5 -178t30 -230.5q0 -270 -132 -416t-360 -146q-83 0 -163 23.5t-143 77t-101 142t-38 215.5zM330 449 q-11 -115 39.5 -186.5t146.5 -71.5q106 0 160 74t57 184h-403z" />
<glyph unicode="&#x4da;" horiz-adv-x="1341" d="M79 618q0 59 5 122t16 132h869q-12 185 -104 286.5t-284 101.5q-110 0 -195 -32.5t-134 -62.5l-63 249q33 19 80.5 38.5t106.5 34.5t124 24t130 9q147 0 264.5 -43.5t199 -138t124 -241.5t42.5 -351q0 -181 -34.5 -325t-110.5 -244t-192 -153.5t-277 -53.5 q-145 0 -252 46.5t-177 132t-104 205t-34 264.5zM270 1699q0 55 38.5 89.5t123.5 34.5q83 0 121 -33.5t38 -90.5q0 -55 -38.5 -87.5t-120.5 -32.5q-85 0 -123.5 32.5t-38.5 87.5zM386 549q0 -65 15.5 -126t49 -108t84.5 -75.5t123 -28.5q149 0 229 106.5t80 312.5h-575 q-6 -42 -6 -81zM725 1699q0 55 38.5 89.5t122.5 34.5q85 0 123 -33.5t38 -90.5q0 -55 -38 -87.5t-123 -32.5q-84 0 -122.5 32.5t-38.5 87.5z" />
<glyph unicode="&#x4db;" horiz-adv-x="1081" d="M71 428q0 90 21 194h645q-10 132 -73 192t-204 60q-88 0 -155 -31.5t-102 -56.5l-99 187q64 51 174 86.5t234 35.5q128 0 221.5 -40.5t154 -114t90.5 -178t30 -230.5q0 -270 -132 -416t-360 -146q-83 0 -163 23.5t-143 77t-101 142t-38 215.5zM136 1345q0 69 41.5 109.5 t109.5 40.5t107.5 -40.5t39.5 -109.5q0 -63 -39.5 -103.5t-107.5 -40.5q-69 0 -110 40.5t-41 103.5zM328 449q-11 -115 39.5 -186.5t146.5 -71.5q106 0 160 74t57 184h-403zM602 1345q0 69 39.5 109.5t108.5 40.5q68 0 109 -40.5t41 -109.5q0 -63 -41.5 -103.5t-108.5 -40.5 q-69 0 -108.5 40.5t-39.5 103.5z" />
<glyph unicode="&#x4dc;" horiz-adv-x="1786" d="M-15 0l389 654l116 83l-110 78l-365 676h339l308 -637h84v637h276v-662l75 29l309 633h328l-348 -654l-100 -73l122 -89l392 -675h-351l-343 648h-84v-648h-276v673l-77 -30l-343 -643h-341zM500 1699q0 55 38.5 89.5t123.5 34.5q83 0 121 -33.5t38 -90.5 q0 -55 -38.5 -87.5t-120.5 -32.5q-85 0 -123.5 32.5t-38.5 87.5zM955 1699q0 55 38.5 89.5t122.5 34.5q85 0 123 -33.5t38 -90.5q0 -55 -38 -87.5t-123 -32.5q-84 0 -122.5 32.5t-38.5 87.5z" />
<glyph unicode="&#x4dd;" horiz-adv-x="1475" d="M-12 0l278 488l73 63l-109 81l-220 433h297l197 -433h92v433h264v-453l81 29l201 424h293l-232 -433l-83 -67l109 -86l258 -479h-318l-217 441h-92v-441h-264v462l-80 -29l-218 -433h-310zM352 1345q0 69 41.5 109.5t109.5 40.5t107.5 -40.5t39.5 -109.5 q0 -63 -39.5 -103.5t-107.5 -40.5q-69 0 -110 40.5t-41 103.5zM818 1345q0 69 39.5 109.5t108.5 40.5q68 0 109 -40.5t41 -109.5q0 -63 -41.5 -103.5t-108.5 -40.5q-69 0 -108.5 40.5t-39.5 103.5z" />
<glyph unicode="&#x4de;" horiz-adv-x="1120" d="M38 49l75 254q49 -24 140.5 -48.5t217.5 -24.5q47 0 95 12t86.5 38.5t61.5 69t23 101.5q0 100 -74.5 151.5t-266.5 55.5q-26 2 -38.5 2h-44.5h-57v228h51h47t56.5 1t56 4t45.5 8q75 16 128 60.5t53 118.5q0 101 -65 138.5t-172 37.5q-96 0 -179.5 -25.5t-125.5 -48.5 l-74 247q24 12 67 27.5t100 29.5t123 22t133 8q94 0 183.5 -17t160 -59.5t113 -114t42.5 -181.5t-58.5 -204t-188.5 -137v-11q138 -28 216 -119.5t78 -244.5q0 -121 -49.5 -207.5t-129 -141.5t-184 -82t-212.5 -27q-140 0 -255.5 23.5t-177.5 55.5zM124 1699q0 55 38.5 89.5 t123.5 34.5q83 0 121 -33.5t38 -90.5q0 -55 -38.5 -87.5t-120.5 -32.5q-85 0 -123.5 32.5t-38.5 87.5zM579 1699q0 55 38.5 89.5t122.5 34.5q85 0 123 -33.5t38 -90.5q0 -55 -38 -87.5t-123 -32.5q-84 0 -122.5 32.5t-38.5 87.5z" />
<glyph unicode="&#x4df;" horiz-adv-x="919" d="M41 1345q0 69 41.5 109.5t109.5 40.5t107.5 -40.5t39.5 -109.5q0 -63 -39.5 -103.5t-107.5 -40.5q-69 0 -110 40.5t-41 103.5zM47 57l59 215q49 -28 118.5 -44.5t155.5 -16.5q193 0 193 124q0 55 -50 80.5t-186 25.5h-105v193h130q75 0 122.5 30.5t47.5 79.5 q0 57 -42.5 81.5t-129.5 24.5q-83 0 -147 -21.5t-103 -44.5l-59 210q63 37 169 63.5t225 26.5q183 0 273.5 -68.5t90.5 -198.5q0 -36 -9.5 -73t-30.5 -71t-52.5 -60.5t-73.5 -41.5v-8q113 -26 160 -91t47 -174q0 -68 -27.5 -126.5t-84.5 -101t-141.5 -68.5t-202.5 -26 q-117 0 -203.5 25t-143.5 56zM507 1345q0 69 39.5 109.5t108.5 40.5q68 0 109 -40.5t41 -109.5q0 -63 -41.5 -103.5t-108.5 -40.5q-69 0 -108.5 40.5t-39.5 103.5z" />
<glyph unicode="&#x4e0;" horiz-adv-x="1166" d="M73 53l67 256q31 -17 70.5 -31t84 -25t90.5 -17t88 -6q64 0 119.5 15t96.5 44.5t65 72.5t24 100q0 121 -94 170t-275 49h-173v124l333 370l96 93l-126 -26h-441v249h918v-160l-362 -400l-96 -69v-8l98 22q94 0 171.5 -26.5t133 -78t86 -129t30.5 -180.5 q0 -116 -41.5 -206t-118 -154t-184 -98t-241.5 -34q-47 0 -104.5 5.5t-115 15t-111 25.5t-88.5 37z" />
<glyph unicode="&#x4e1;" horiz-adv-x="1030" d="M21 -362l99 220q57 -31 126 -53t161 -22q125 0 204.5 60.5t79.5 171.5q0 236 -342 237h-136v112l249 378l115 104l-155 -15h-365v234h844v-149l-296 -394l-85 -62v-4l66 6q72 0 141.5 -28.5t122.5 -82t85 -130t32 -172.5q0 -118 -41.5 -210.5t-117 -157.5t-182 -98.5 t-236.5 -33.5q-96 0 -192 21t-177 68z" />
<glyph unicode="&#x4e2;" horiz-adv-x="1417" d="M128 0v1491h291v-812l-21 -200h13l105 206l555 806h218v-1491h-293v827l18 193h-10l-101 -200l-556 -820h-219zM354 1634v189h730v-189h-730z" />
<glyph unicode="&#x4e3;" horiz-adv-x="1160" d="M122 0v1065h276v-507l-12 -145h8l88 152l382 500h175v-1065h-277v486l11 150h-7l-91 -154l-379 -482h-174zM243 1205v197h687v-197h-687z" />
<glyph unicode="&#x4e4;" horiz-adv-x="1417" d="M128 0v1491h291v-812l-21 -200h13l105 206l555 806h218v-1491h-293v827l18 193h-10l-101 -200l-556 -820h-219zM319 1699q0 55 38.5 89.5t123.5 34.5q83 0 121 -33.5t38 -90.5q0 -55 -38.5 -87.5t-120.5 -32.5q-85 0 -123.5 32.5t-38.5 87.5zM774 1699q0 55 38.5 89.5 t122.5 34.5q85 0 123 -33.5t38 -90.5q0 -55 -38 -87.5t-123 -32.5q-84 0 -122.5 32.5t-38.5 87.5z" />
<glyph unicode="&#x4e5;" horiz-adv-x="1160" d="M122 0v1065h276v-507l-12 -145h8l88 152l382 500h175v-1065h-277v486l11 150h-7l-91 -154l-379 -482h-174zM220 1345q0 69 41.5 109.5t109.5 40.5t107.5 -40.5t39.5 -109.5q0 -63 -39.5 -103.5t-107.5 -40.5q-69 0 -110 40.5t-41 103.5zM686 1345q0 69 39.5 109.5 t108.5 40.5q68 0 109 -40.5t41 -109.5q0 -63 -41.5 -103.5t-108.5 -40.5q-69 0 -108.5 40.5t-39.5 103.5z" />
<glyph unicode="&#x4e6;" horiz-adv-x="1426" d="M81 746q0 372 164 573t468 201q161 0 280 -55t198 -157.5t117 -245t38 -316.5q0 -373 -165 -574.5t-468 -201.5q-162 0 -281 55.5t-196.5 157.5t-116 245t-38.5 318zM324 1699q0 55 38.5 89.5t123.5 34.5q83 0 121 -33.5t38 -90.5q0 -55 -38.5 -87.5t-120.5 -32.5 q-85 0 -123.5 32.5t-38.5 87.5zM388 746q0 -114 19 -208.5t58 -162.5t101 -106.5t147 -38.5q156 0 241 121.5t85 394.5q0 108 -17.5 201.5t-56 164t-100.5 109.5t-152 39q-156 0 -240.5 -124t-84.5 -390zM779 1699q0 55 38.5 89.5t122.5 34.5q85 0 123 -33.5t38 -90.5 q0 -55 -38 -87.5t-123 -32.5q-84 0 -122.5 32.5t-38.5 87.5z" />
<glyph unicode="&#x4e7;" horiz-adv-x="1142" d="M71 532q0 271 132 417t370 146q128 0 221.5 -40.5t155.5 -114t92.5 -178t30.5 -230.5q0 -270 -131 -416t-369 -146q-128 0 -221.5 40.5t-156.5 114t-93.5 178t-30.5 229.5zM187 1345q0 69 41.5 109.5t109.5 40.5t107.5 -40.5t39.5 -109.5q0 -63 -39.5 -103.5 t-107.5 -40.5q-69 0 -110 40.5t-41 103.5zM356 532q0 -70 13 -129.5t38.5 -104t67 -69t98.5 -24.5q108 0 161.5 78.5t53.5 248.5q0 147 -48.5 237.5t-166.5 90.5q-102 0 -159.5 -76.5t-57.5 -251.5zM653 1345q0 69 39.5 109.5t108.5 40.5q68 0 109 -40.5t41 -109.5 q0 -63 -41.5 -103.5t-108.5 -40.5q-69 0 -108.5 40.5t-39.5 103.5z" />
<glyph unicode="&#x4e8;" horiz-adv-x="1426" d="M81 746q0 372 164 573t468 201q161 0 280 -55t198 -157.5t117 -245t38 -316.5q0 -373 -165 -574.5t-468 -201.5q-162 0 -281 55.5t-196.5 157.5t-116 245t-38.5 318zM388 632q17 -202 104 -302t221 -100q62 0 118.5 20t100.5 66t72.5 123t34.5 193h-651zM388 867h651 q-17 190 -102 291.5t-224 101.5q-61 0 -116.5 -21t-99.5 -68t-72.5 -122.5t-36.5 -181.5z" />
<glyph unicode="&#x4e9;" horiz-adv-x="1142" d="M71 532q0 271 132 417t370 146q128 0 221.5 -40.5t155.5 -114t92.5 -178t30.5 -230.5q0 -270 -131 -416t-369 -146q-128 0 -221.5 40.5t-156.5 114t-93.5 178t-30.5 229.5zM356 441q12 -115 72 -175.5t145 -60.5q81 0 141.5 52t73.5 184h-432zM356 616h432 q-16 128 -71 186t-144 58q-41 0 -77 -12.5t-65 -41t-49 -76t-26 -114.5z" />
<glyph unicode="&#x4ea;" horiz-adv-x="1426" d="M81 746q0 372 164 573t468 201q161 0 280 -55t198 -157.5t117 -245t38 -316.5q0 -373 -165 -574.5t-468 -201.5q-162 0 -281 55.5t-196.5 157.5t-116 245t-38.5 318zM326 1699q0 55 38.5 89.5t123.5 34.5q83 0 121 -33.5t38 -90.5q0 -55 -38.5 -87.5t-120.5 -32.5 q-85 0 -123.5 32.5t-38.5 87.5zM388 632q17 -202 104 -302t221 -100q62 0 118.5 20t100.5 66t72.5 123t34.5 193h-651zM388 867h651q-17 190 -102 291.5t-224 101.5q-61 0 -116.5 -21t-99.5 -68t-72.5 -122.5t-36.5 -181.5zM781 1699q0 55 38.5 89.5t122.5 34.5 q85 0 123 -33.5t38 -90.5q0 -55 -38 -87.5t-123 -32.5q-84 0 -122.5 32.5t-38.5 87.5z" />
<glyph unicode="&#x4eb;" horiz-adv-x="1142" d="M71 532q0 271 132 417t370 146q128 0 221.5 -40.5t155.5 -114t92.5 -178t30.5 -230.5q0 -270 -131 -416t-369 -146q-128 0 -221.5 40.5t-156.5 114t-93.5 178t-30.5 229.5zM187 1345q0 69 41.5 109.5t109.5 40.5t107.5 -40.5t39.5 -109.5q0 -63 -39.5 -103.5 t-107.5 -40.5q-69 0 -110 40.5t-41 103.5zM356 441q12 -115 72 -175.5t145 -60.5q81 0 141.5 52t73.5 184h-432zM356 616h432q-16 128 -71 186t-144 58q-41 0 -77 -12.5t-65 -41t-49 -76t-26 -114.5zM653 1345q0 69 39.5 109.5t108.5 40.5q68 0 109 -40.5t41 -109.5 q0 -63 -41.5 -103.5t-108.5 -40.5q-69 0 -108.5 40.5t-39.5 103.5z" />
<glyph unicode="&#x4ec;" horiz-adv-x="1222" d="M43 41l77 253q48 -24 131.5 -44t191.5 -20q83 0 153.5 23.5t124.5 73t88 126.5t43 186h-575v235h573q-7 85 -35.5 156t-77.5 122t-121.5 79.5t-164.5 28.5q-115 0 -200 -24t-138 -54l-62 247q75 38 188 64.5t223 26.5q146 0 271 -40.5t215.5 -133t142 -240t51.5 -360.5 q0 -222 -60 -371t-159.5 -238.5t-229.5 -128t-271 -38.5q-121 0 -220.5 21t-158.5 50zM102 1699q0 55 38.5 89.5t123.5 34.5q83 0 121 -33.5t38 -90.5q0 -55 -38.5 -87.5t-120.5 -32.5q-85 0 -123.5 32.5t-38.5 87.5zM557 1699q0 55 38.5 89.5t122.5 34.5q85 0 123 -33.5 t38 -90.5q0 -55 -38 -87.5t-123 -32.5q-84 0 -122.5 32.5t-38.5 87.5z" />
<glyph unicode="&#x4ed;" horiz-adv-x="977" d="M49 47l69 217q48 -28 115.5 -43.5t134.5 -15.5q136 0 194 57t68 179h-398v198h396q-10 106 -70 163.5t-176 57.5q-81 0 -143 -18.5t-109 -44.5l-75 199q141 98 380 99q238 0 355 -142t117 -421q0 -280 -132 -421t-362 -141q-100 0 -202.5 20t-161.5 57zM51 1345 q0 69 41.5 109.5t109.5 40.5t107.5 -40.5t39.5 -109.5q0 -63 -39.5 -103.5t-107.5 -40.5q-69 0 -110 40.5t-41 103.5zM517 1345q0 69 39.5 109.5t108.5 40.5q68 0 109 -40.5t41 -109.5q0 -63 -41.5 -103.5t-108.5 -40.5q-69 0 -108.5 40.5t-39.5 103.5z" />
<glyph unicode="&#x4ee;" horiz-adv-x="1209" d="M-19 1491h342l303 -658l43 -194h12l35 200l223 652h301l-397 -1031q-46 -122 -90 -211t-94 -147.5t-111.5 -87.5t-145.5 -29q-70 0 -113.5 9.5t-95.5 41.5l75 236q37 -18 66.5 -22.5t63.5 -4.5q100 0 141 157zM268 1634v189h730v-189h-730z" />
<glyph unicode="&#x4ef;" horiz-adv-x="1017" d="M-19 1065h332l196 -598l38 -166h14l27 168l162 596h285l-324 -961q-40 -120 -77.5 -218.5t-82.5 -171t-99 -112t-129 -39.5q-110 0 -176 37l51 221q32 -12 64 -12q49 0 94.5 41.5t69.5 149.5zM183 1205v197h687v-197h-687z" />
<glyph unicode="&#x4f0;" horiz-adv-x="1209" d="M-19 1491h342l303 -658l43 -194h12l35 200l223 652h301l-397 -1031q-46 -122 -90 -211t-94 -147.5t-111.5 -87.5t-145.5 -29q-70 0 -113.5 9.5t-95.5 41.5l75 236q37 -18 66.5 -22.5t63.5 -4.5q100 0 141 157zM262 1699q0 55 38.5 89.5t123.5 34.5q83 0 121 -33.5 t38 -90.5q0 -55 -38.5 -87.5t-120.5 -32.5q-85 0 -123.5 32.5t-38.5 87.5zM717 1699q0 55 38.5 89.5t122.5 34.5q85 0 123 -33.5t38 -90.5q0 -55 -38 -87.5t-123 -32.5q-84 0 -122.5 32.5t-38.5 87.5z" />
<glyph unicode="&#x4f1;" horiz-adv-x="1017" d="M-19 1065h332l196 -598l38 -166h14l27 168l162 596h285l-324 -961q-40 -120 -77.5 -218.5t-82.5 -171t-99 -112t-129 -39.5q-110 0 -176 37l51 221q32 -12 64 -12q49 0 94.5 41.5t69.5 149.5zM154 1345q0 69 41.5 109.5t109.5 40.5t107.5 -40.5t39.5 -109.5 q0 -63 -39.5 -103.5t-107.5 -40.5q-69 0 -110 40.5t-41 103.5zM620 1345q0 69 39.5 109.5t108.5 40.5q68 0 109 -40.5t41 -109.5q0 -63 -41.5 -103.5t-108.5 -40.5q-69 0 -108.5 40.5t-39.5 103.5z" />
<glyph unicode="&#x4f2;" horiz-adv-x="1209" d="M-19 1491h342l303 -658l43 -194h12l35 200l223 652h301l-397 -1031q-46 -122 -90 -211t-94 -147.5t-111.5 -87.5t-145.5 -29q-70 0 -113.5 9.5t-95.5 41.5l75 236q37 -18 66.5 -22.5t63.5 -4.5q100 0 141 157zM305 1579l126 232h285v-35l-213 -197h-198zM646 1579 l206 232h298v-35l-304 -197h-200z" />
<glyph unicode="&#x4f3;" horiz-adv-x="1017" d="M-19 1065h332l196 -598l38 -166h14l27 168l162 596h285l-324 -961q-40 -120 -77.5 -218.5t-82.5 -171t-99 -112t-129 -39.5q-110 0 -176 37l51 221q32 -12 64 -12q49 0 94.5 41.5t69.5 149.5zM268 1216l75 275h253v-34l-162 -241h-166zM566 1216l155 275h269v-34 l-252 -241h-172z" />
<glyph unicode="&#x4f4;" horiz-adv-x="1290" d="M98 927v564h292v-473q0 -128 50 -191t165 -63q81 0 152.5 18.5t114.5 54.5v654h291v-1491h-291v601q-56 -32 -149 -58.5t-221 -26.5q-89 0 -162.5 22.5t-127.5 72t-84 127t-30 189.5zM258 1699q0 55 38.5 89.5t123.5 34.5q83 0 121 -33.5t38 -90.5q0 -55 -38.5 -87.5 t-120.5 -32.5q-85 0 -123.5 32.5t-38.5 87.5zM713 1699q0 55 38.5 89.5t122.5 34.5q85 0 123 -33.5t38 -90.5q0 -55 -38 -87.5t-123 -32.5q-84 0 -122.5 32.5t-38.5 87.5z" />
<glyph unicode="&#x4f5;" horiz-adv-x="1075" d="M71 703v362h276v-242q0 -66 5.5 -114.5t21.5 -79.5t44.5 -45.5t75.5 -14.5q61 0 107.5 14.5t75.5 36.5v445h278v-1065h-278v417q-32 -24 -97.5 -52t-177.5 -28q-79 0 -140 16.5t-104 59.5t-65 113t-22 177zM128 1345q0 69 41.5 109.5t109.5 40.5t107.5 -40.5t39.5 -109.5 q0 -63 -39.5 -103.5t-107.5 -40.5q-69 0 -110 40.5t-41 103.5zM594 1345q0 69 39.5 109.5t108.5 40.5q68 0 109 -40.5t41 -109.5q0 -63 -41.5 -103.5t-108.5 -40.5q-69 0 -108.5 40.5t-39.5 103.5z" />
<glyph unicode="&#x4f6;" horiz-adv-x="974" d="M128 0v1491h866v-260h-575v-971h188v-526h-205l-32 266h-242z" />
<glyph unicode="&#x4f7;" horiz-adv-x="800" d="M122 0v1065h687v-245h-402v-575h191v-487h-202l-32 242h-242z" />
<glyph unicode="&#x4f8;" horiz-adv-x="1699" d="M128 15v1476h291v-534q24 4 75 10t100 6q106 0 203 -21t169.5 -75t115 -147.5t42.5 -233.5q0 -260 -150.5 -388.5t-449.5 -128.5q-30 0 -77 1t-101 5.5t-111.5 10.5t-106.5 19zM419 252q24 -7 57 -10.5t69 -3.5q122 0 197 57t75 189q0 70 -21 114.5t-57 70.5t-85 35 t-107 9q-30 0 -70 -5t-58 -11v-445zM451 1699q0 55 38.5 89.5t123.5 34.5q83 0 121 -33.5t38 -90.5q0 -55 -38.5 -87.5t-120.5 -32.5q-85 0 -123.5 32.5t-38.5 87.5zM906 1699q0 55 38.5 89.5t122.5 34.5q85 0 123 -33.5t38 -90.5q0 -55 -38 -87.5t-123 -32.5 q-84 0 -122.5 32.5t-38.5 87.5zM1278 0v1491h291v-1491h-291z" />
<glyph unicode="&#x4f9;" horiz-adv-x="1496" d="M122 0v1065h276v-380q51 9 103 12.5t95 3.5q108 0 181 -24.5t117.5 -69t64 -105.5t19.5 -132q0 -95 -25.5 -167.5t-83.5 -120.5t-149.5 -72.5t-225.5 -24.5q-122 0 -210 4.5t-162 10.5zM350 1345q0 69 41.5 109.5t109.5 40.5t107.5 -40.5t39.5 -109.5q0 -63 -39.5 -103.5 t-107.5 -40.5q-69 0 -110 40.5t-41 103.5zM398 232q64 -13 122 -13q96 0 134.5 35.5t38.5 109.5q0 69 -38.5 103.5t-128.5 34.5q-70 0 -128 -14v-256zM816 1345q0 69 39.5 109.5t108.5 40.5q68 0 109 -40.5t41 -109.5q0 -63 -41.5 -103.5t-108.5 -40.5q-69 0 -108.5 40.5 t-39.5 103.5zM1099 0v1065h277v-1065h-277z" />
<glyph unicode="&#x4fc;" horiz-adv-x="1347" d="M21 0l458 758l-416 733h352l231 -430l51 -152l49 152l240 430h317l-429 -718l276 -454q53 -83 83 -176.5t30 -185.5q0 -193 -86 -295.5t-259 -102.5q-32 0 -67.5 3t-70.5 12v233q8 0 15.5 -1.5t15.5 -1.5q92 0 122 45t30 106q0 73 -32 141t-62 117l-151 247l-60 158 l-55 -158l-264 -460h-318z" />
<glyph unicode="&#x4fd;" horiz-adv-x="1118" d="M17 0l345 545l-319 520h329l140 -228l59 -149l63 149l146 228h300l-322 -512l185 -281q47 -68 79.5 -157t32.5 -168q0 -187 -81.5 -288.5t-251.5 -101.5q-66 0 -139 15v221q11 -2 21 -2h20q89 0 122.5 38.5t31.5 101.5q0 58 -27 114.5t-56 101.5l-73 109l-73 153 l-65 -153l-165 -256h-302z" />
<glyph unicode="&#x2000;" horiz-adv-x="931" />
<glyph unicode="&#x2001;" horiz-adv-x="1862" />
<glyph unicode="&#x2002;" horiz-adv-x="931" />
<glyph unicode="&#x2003;" horiz-adv-x="1862" />
<glyph unicode="&#x2004;" horiz-adv-x="620" />
<glyph unicode="&#x2005;" horiz-adv-x="465" />
<glyph unicode="&#x2006;" horiz-adv-x="310" />
<glyph unicode="&#x2007;" horiz-adv-x="310" />
<glyph unicode="&#x2008;" horiz-adv-x="232" />
<glyph unicode="&#x2009;" horiz-adv-x="372" />
<glyph unicode="&#x200a;" horiz-adv-x="103" />
<glyph unicode="&#x2010;" horiz-adv-x="766" d="M115 490v245h535v-245h-535z" />
<glyph unicode="&#x2011;" horiz-adv-x="766" d="M115 490v245h535v-245h-535z" />
<glyph unicode="&#x2012;" horiz-adv-x="766" d="M115 490v245h535v-245h-535z" />
<glyph unicode="&#x2013;" horiz-adv-x="1405" d="M232 492v245h941v-245h-941z" />
<glyph unicode="&#x2014;" horiz-adv-x="1746" d="M232 492v245h1282v-245h-1282z" />
<glyph unicode="&#x2018;" horiz-adv-x="474" d="M81 1363q0 86 26.5 145t64 98.5t78 62t69.5 32.5l69 -114q-43 -17 -73 -54t-34 -80q42 0 77.5 -37.5t35.5 -98.5q0 -62 -41.5 -99.5t-102.5 -37.5q-79 0 -124 50t-45 133z" />
<glyph unicode="&#x2019;" horiz-adv-x="474" d="M81 1372q0 61 41.5 99.5t105.5 38.5q77 0 121.5 -51t44.5 -134q0 -85 -26.5 -145t-64 -99.5t-79 -62t-68.5 -32.5l-71 117q43 19 75.5 51.5t37.5 81.5q-43 -3 -80 32t-37 104z" />
<glyph unicode="&#x201a;" horiz-adv-x="474" d="M81 132q0 61 41.5 99.5t105.5 38.5q77 0 121.5 -51t44.5 -134q0 -85 -26.5 -145t-64 -99.5t-79 -62t-68.5 -32.5l-71 117q43 19 75.5 51.5t37.5 81.5q-43 -3 -80 32t-37 104z" />
<glyph unicode="&#x201c;" horiz-adv-x="843" d="M81 1363q0 86 26.5 145t64 98.5t78 62t69.5 32.5l69 -114q-43 -17 -73 -54t-34 -80q42 0 77.5 -37.5t35.5 -98.5q0 -62 -41.5 -99.5t-102.5 -37.5q-79 0 -124 50t-45 133zM449 1363q0 86 26.5 145t64 98.5t78 62t69.5 32.5l69 -114q-43 -17 -73 -54t-34 -80 q42 0 77.5 -37.5t35.5 -98.5q0 -62 -41.5 -99.5t-102.5 -37.5q-79 0 -124 50t-45 133z" />
<glyph unicode="&#x201d;" horiz-adv-x="843" d="M81 1372q0 61 41.5 99.5t105.5 38.5q77 0 121.5 -51t44.5 -134q0 -85 -26.5 -145t-64 -99.5t-79 -62t-68.5 -32.5l-71 117q43 19 75.5 51.5t37.5 81.5q-43 -3 -80 32t-37 104zM449 1372q0 61 41.5 99.5t105.5 38.5q77 0 121.5 -51t44.5 -134q0 -85 -26.5 -145t-64 -99.5 t-79 -62t-68.5 -32.5l-71 117q43 19 75.5 51.5t37.5 81.5q-43 -3 -80 32t-37 104z" />
<glyph unicode="&#x201e;" horiz-adv-x="843" d="M81 132q0 61 41.5 99.5t105.5 38.5q77 0 121.5 -51t44.5 -134q0 -85 -26.5 -145t-64 -99.5t-79 -62t-68.5 -32.5l-71 117q43 19 75.5 51.5t37.5 81.5q-43 -3 -80 32t-37 104zM449 132q0 61 41.5 99.5t105.5 38.5q77 0 121.5 -51t44.5 -134q0 -85 -26.5 -145t-64 -99.5 t-79 -62t-68.5 -32.5l-71 117q43 19 75.5 51.5t37.5 81.5q-43 -3 -80 32t-37 104z" />
<glyph unicode="&#x2022;" horiz-adv-x="962" d="M156 662q0 73 25.5 132.5t70 102t103 67t124.5 24.5q69 0 128.5 -22.5t103 -64t69 -102t25.5 -137.5q0 -76 -25.5 -135.5t-69 -101t-103.5 -64t-128 -22.5q-65 0 -124 22.5t-103.5 64t-70 101t-25.5 135.5z" />
<glyph unicode="&#x2026;" horiz-adv-x="1722" d="M113 140q0 75 47 119t124 44q81 0 128 -44t47 -119q0 -74 -47 -119t-128 -45q-77 0 -124 45t-47 119zM692 140q0 75 47 119t124 44q81 0 128 -44t47 -119q0 -74 -47 -119t-128 -45q-77 0 -124 45t-47 119zM1271 140q0 75 47 119t124 44q81 0 128 -44t47 -119 q0 -74 -47 -119t-128 -45q-77 0 -124 45t-47 119z" />
<glyph unicode="&#x202f;" horiz-adv-x="372" />
<glyph unicode="&#x2039;" horiz-adv-x="653" d="M61 551l341 490l161 -132l-177 -268l-103 -88l103 -76l193 -260l-164 -136z" />
<glyph unicode="&#x203a;" horiz-adv-x="653" d="M73 907l165 134l354 -470l-340 -490l-163 130l179 271l102 87l-102 77z" />
<glyph unicode="&#x205f;" horiz-adv-x="465" />
<glyph unicode="&#x20ac;" d="M4 492l69 199h104v55v33.5t2 33.5h-175l69 199h132q32 140 92.5 236t141.5 156.5t177.5 88t200.5 27.5q111 0 197.5 -16.5t144.5 -40.5l-75 -219q-47 19 -108.5 28.5t-144.5 9.5q-128 0 -219.5 -64t-138.5 -206h551l-55 -199h-530q-2 -16 -2 -32.5v-34.5v-55h490 l-55 -199h-401q43 -140 135.5 -211.5t245.5 -71.5q89 0 154 19.5t116 48.5l58 -216q-32 -24 -76.5 -41.5t-93.5 -28t-100.5 -16t-98.5 -5.5q-234 0 -394.5 124.5t-215.5 397.5h-197z" />
<glyph unicode="&#x2122;" horiz-adv-x="2018" d="M61 1256v235h780v-235h-251v-532h-277v532h-252zM914 724v767h277l193 -320l51 -134h2l54 138l179 316h275v-767h-241v307l36 219h-13l-77 -181l-144 -249h-166l-145 243l-83 187h-11l49 -217v-309h-236z" />
<glyph unicode="&#x25fc;" horiz-adv-x="1064" d="M0 0v1065h1065v-1065h-1065z" />
</font>
</defs>
</svg>
